<svg width="28" height="28" viewBox="0 0 28 28" fill="none" xmlns="http://www.w3.org/2000/svg">
<path fill-rule="evenodd" clip-rule="evenodd" d="M13.6862 23.7888C16.7676 23.7888 19.2656 23.151 19.2656 22.3642C19.2656 21.9716 18.6437 21.6161 17.6379 21.3585C19.5499 21.6629 20.8163 22.194 20.8163 22.7983C20.8163 23.7433 17.7192 24.5094 13.8987 24.5094C10.0783 24.5094 6.9812 23.7433 6.9812 22.7983C6.9812 22.3263 7.754 21.8988 9.00374 21.5893C8.43642 21.8123 8.10689 22.0784 8.10689 22.3642C8.10689 23.151 10.6049 23.7888 13.6862 23.7888Z" fill="#D3A3F1"/>
<path fill-rule="evenodd" clip-rule="evenodd" d="M13.7982 26.6378C18.9339 26.6378 23.0971 25.6811 23.0971 24.5009C23.0971 24.2049 22.8352 23.9229 22.3617 23.6666C23.8612 24.1237 24.7598 24.7063 24.7598 25.3409C24.7598 26.8095 19.9468 28.0001 14.0097 28.0001C8.07253 28.0001 3.25952 26.8095 3.25952 25.3409C3.25952 24.8419 3.81525 24.3749 4.78199 23.9759C4.59737 24.1439 4.4993 24.3198 4.4993 24.5009C4.4993 25.6811 8.66256 26.6378 13.7982 26.6378Z" fill="#D3A3F1"/>
<path d="M4.06696 2.65265C4.06696 1.94912 4.48722 1.27441 5.23527 0.776942C5.98332 0.279475 6.9979 0 8.0558 0C9.11371 0 10.1283 0.279475 10.8763 0.776942C11.6244 1.27441 12.0446 1.94912 12.0446 2.65265C12.0446 3.35617 11.6244 4.03088 10.8763 4.52835C10.1283 5.02582 9.11371 5.30529 8.0558 5.30529C6.9979 5.30529 5.98332 5.02582 5.23527 4.52835C4.48722 4.03088 4.06696 3.35617 4.06696 2.65265ZM17.5871 4.75354L17.6709 4.79599C18.5171 5.21312 19.5771 5.39073 20.6195 5.29006C21.6619 5.18938 22.6021 4.81859 23.235 4.25861C23.8678 3.69862 24.1418 2.99491 23.9973 2.30104C23.8528 1.60717 23.3015 0.979478 22.4636 0.554949C21.6258 0.13042 20.5694 -0.0564794 19.5251 0.0350377C18.4808 0.126555 17.5333 0.489058 16.8894 1.04344C16.2455 1.59782 15.9575 2.29906 16.0882 2.99414C16.2189 3.68922 16.7578 4.3217 17.5871 4.75354ZM10.5847 6.63162C10.8352 6.31617 11.1788 6.03756 11.595 5.81247C12.0111 5.58737 12.4913 5.42041 13.0067 5.32157C13.5222 5.22272 14.0623 5.19404 14.5947 5.23722C15.1272 5.2804 15.6411 5.39456 16.1058 5.57287C16.5704 5.75119 16.9761 5.98999 17.2987 6.275C17.6214 6.56 17.8542 6.88535 17.9834 7.23159C18.1126 7.57783 18.1354 7.93783 18.0505 8.29007C17.9656 8.64231 17.7748 8.97955 17.4894 9.28161C16.9404 9.86271 16.0741 10.2797 15.0725 10.4449C14.0708 10.6102 13.0119 10.5109 12.1181 10.1678C11.2243 9.8248 10.5652 9.26475 10.2793 8.60533C9.99332 7.94592 10.1028 7.23847 10.5847 6.63162ZM3.06975 6.63162H8.39486C8.04039 7.3048 7.96332 8.02881 8.17164 8.72849C8.37996 9.42817 8.86608 10.078 9.57954 10.6106H9.05301C8.02476 10.6105 7.0216 10.8217 6.18082 11.2154C5.34004 11.609 4.70274 12.1658 4.35616 12.8096C3.6867 12.6308 3.05988 12.3882 2.49536 12.0894C0.995558 11.287 0.078125 10.1013 0.078125 8.6211C0.078125 8.09346 0.393314 7.58742 0.954353 7.21432C1.51539 6.84122 2.27633 6.63162 3.06975 6.63162ZM19.0251 10.6106C21.1891 10.6106 23.0319 11.5271 23.722 12.8096C24.4001 12.6253 25.0263 12.3852 25.5828 12.0894C27.0826 11.287 28 10.1013 28 8.6211C28 8.09346 27.6848 7.58742 27.1238 7.21432C26.5627 6.84122 25.8018 6.63162 25.0084 6.63162H19.6833C19.9027 7.04676 20.0223 7.49373 20.0223 7.95794C20.0242 8.93692 19.4814 9.88175 18.4986 10.6106H19.0251ZM21.7914 13.1677C21.937 13.4012 22.0167 13.6585 22.0167 13.9264C22.0167 15.4066 21.1013 16.5923 19.5995 17.3947C18.1216 18.1839 16.1392 18.5685 14.0391 18.5685C11.9389 18.5685 9.95649 18.1839 8.47862 17.3947C6.97882 16.5923 6.06138 15.4066 6.06138 13.9264C6.06033 13.6649 6.13699 13.4059 6.28696 13.1642C6.43694 12.9225 6.65726 12.7029 6.93526 12.5181C7.21327 12.3332 7.54349 12.1867 7.90692 12.0869C8.27036 11.9872 8.65985 11.9362 9.05301 11.9369H19.0251C19.6177 11.9368 20.1969 12.0538 20.6894 12.2729C21.1819 12.492 21.5654 12.8035 21.7914 13.1677Z" fill="#D3A3F1"/>
</svg>
