<svg width="23" height="24" viewBox="0 0 23 24" fill="none" xmlns="http://www.w3.org/2000/svg">
<path d="M14.0411 2.47718L12.8521 3.5322L13.1333 5.02222C13.1787 5.26522 12.9735 5.48972 12.6983 5.48972C12.549 5.48972 12.6266 5.50777 11.0243 4.74071L9.55588 5.44372C9.23342 5.59813 8.8543 5.34932 8.91537 5.02222L9.19649 3.5322L8.00752 2.47718C7.74581 2.24518 7.89243 1.84287 8.25226 1.79517L9.89377 1.57817L10.6285 0.223147C10.79 -0.0741573 11.2584 -0.0746073 11.4201 0.223147L12.1548 1.57817L13.7964 1.79517C14.1569 1.84297 14.3023 2.24568 14.0411 2.47718ZM6.42306 4.52426L6.37097 4.24876C6.57487 4.06845 6.80334 3.92315 6.70319 3.6436C6.60309 3.36419 6.32203 3.36804 6.04228 3.33114L5.90591 3.08049C5.74452 2.78378 5.2766 2.78358 5.11504 3.08049L4.97866 3.33114C4.69688 3.36829 4.41786 3.36399 4.31776 3.6436C4.21766 3.923 4.44757 4.06975 4.64998 4.24876L4.59789 4.52426C4.53626 4.85031 4.91461 5.09997 5.23773 4.94592L5.51042 4.81581C5.78961 4.94902 5.85052 4.99187 5.98827 4.99187C6.26034 4.99187 6.46947 4.76956 6.42306 4.52426ZM2.56457 6.52429L2.51248 6.24878C2.71638 6.06848 2.94485 5.92318 2.8447 5.64363C2.7446 5.36422 2.46354 5.36807 2.18379 5.33117L2.04743 5.08052C1.88603 4.78381 1.41811 4.78361 1.25654 5.08052L1.12017 5.33117C0.838395 5.36832 0.559371 5.36402 0.459271 5.64363C0.35917 5.92303 0.589081 6.06978 0.791487 6.24878L0.739397 6.52429C0.677771 6.85034 1.05612 7.1 1.37924 6.94595L1.65193 6.81584C1.93112 6.94905 1.99203 6.9919 2.12978 6.9919C2.40185 6.9919 2.61099 6.76959 2.56457 6.52429ZM17.4506 4.52426L17.3985 4.24876C17.6024 4.06845 17.8309 3.92315 17.7307 3.6436C17.6306 3.36419 17.3495 3.36804 17.0698 3.33114C16.9437 3.09939 16.8621 2.85754 16.538 2.85754C16.2142 2.85754 16.1314 3.10119 16.0062 3.33114L15.7013 3.37134C15.3404 3.41894 15.1956 3.82255 15.4569 4.05365L15.6775 4.24876C15.6294 4.50346 15.5387 4.74271 15.8009 4.91547C16.0629 5.08817 16.2878 4.93517 16.538 4.81581C16.8172 4.94902 16.8781 4.99187 17.0159 4.99187C17.2879 4.99187 17.4969 4.76956 17.4506 4.52426ZM21.3091 6.52429L21.257 6.24878C21.4609 6.06848 21.6893 5.92318 21.5892 5.64363C21.4891 5.36422 21.208 5.36807 20.9283 5.33117C20.8022 5.09942 20.7206 4.85756 20.3965 4.85756C20.0727 4.85756 19.9898 5.10122 19.8647 5.33117L19.5598 5.37137C19.1989 5.41897 19.054 5.82258 19.3154 6.05368L19.536 6.24878C19.4879 6.50349 19.3972 6.74274 19.6594 6.91549C19.9214 7.0882 20.1463 6.93519 20.3965 6.81584C20.6757 6.94905 20.7366 6.9919 20.8744 6.9919C21.1463 6.9919 21.3554 6.76959 21.3091 6.52429ZM4.52876 23.5886C4.53632 23.8139 4.3365 24 4.08796 24H1.76388C0.789723 24 0 23.2836 0 22.4V14.3999C0 13.5162 0.789723 12.7998 1.76388 12.7998H4.07898C4.3225 12.7998 4.51995 12.9793 4.51995 13.2002C4.51945 20.7333 4.50556 22.8984 4.52876 23.5886ZM3.03167 16.7999C3.03167 16.579 2.83423 16.3999 2.5907 16.3999C2.34717 16.3999 2.14973 16.579 2.14973 16.7999V18.4999C2.14973 18.7208 2.34717 18.8999 2.5907 18.8999C2.83423 18.8999 3.03167 18.7208 3.03167 18.4999V16.7999ZM22.0485 14.3999V22.4C22.0485 23.2836 21.2588 24 20.2846 24H17.9609C17.7125 24 17.5125 23.8138 17.5201 23.5885C17.5434 22.8996 17.5291 20.7377 17.5286 13.2002C17.5286 12.9793 17.726 12.7998 17.9695 12.7998H20.2846C21.2588 12.7998 22.0485 13.5162 22.0485 14.3999ZM19.8988 16.7999C19.8988 16.579 19.7013 16.3999 19.4578 16.3999C19.2143 16.3999 19.0168 16.579 19.0168 16.7999V18.4999C19.0168 18.7208 19.2143 18.8999 19.4578 18.8999C19.7013 18.8999 19.8988 18.7208 19.8988 18.4999V16.7999ZM9.92183 24H12.1267C12.3702 24 12.5677 23.8209 12.5677 23.6V19.8499C12.5677 19.629 12.3702 19.4499 12.1267 19.4499H9.92183C9.67831 19.4499 9.48086 19.629 9.48086 19.8499V23.6C9.48086 23.8209 9.67831 24 9.92183 24ZM16.6466 8.69977V23.6C16.6466 23.8209 16.4492 24 16.2057 24H13.8906C13.647 24 13.4496 23.8209 13.4496 23.6V19.0499C13.4496 18.829 13.2521 18.6499 13.0086 18.6499H9.03989C8.79636 18.6499 8.59892 18.829 8.59892 19.0499V23.6C8.59892 23.8209 8.40148 24 8.15795 24H5.84286C5.59933 24 5.40189 23.8209 5.40189 23.6V8.69977C5.40189 7.81611 6.19161 7.09975 7.16577 7.09975H14.8827C15.857 7.09975 16.6466 7.81611 16.6466 8.69977ZM13.2291 15.3999C13.2291 15.179 13.0317 14.9999 12.7881 14.9999H9.26038C9.01685 14.9999 8.81941 15.179 8.81941 15.3999C8.81941 15.6208 9.01685 15.7999 9.26038 15.7999H12.7881C13.0317 15.7999 13.2291 15.6208 13.2291 15.3999ZM14.0008 11.5498C14.0008 11.3289 13.8034 11.1498 13.5598 11.1498H8.48868C8.24515 11.1498 8.04771 11.3289 8.04771 11.5498C8.04771 11.7707 8.24515 11.9498 8.48868 11.9498H13.5598C13.8034 11.9498 14.0008 11.7707 14.0008 11.5498Z" fill="#D3A3F1"/>
</svg>
