<svg width="22" height="23" viewBox="0 0 22 23" fill="none" xmlns="http://www.w3.org/2000/svg">
<path d="M0 5.75V3.45H2.44444V2.3C2.44444 1.69 2.70198 1.10499 3.16041 0.673654C3.61883 0.242321 4.24058 0 4.88889 0H12.2222V8.05L15.2778 6.325L18.3333 8.05V0H19.5556C20.8389 0 22 1.0925 22 2.3V20.7C22 21.9075 20.8389 23 19.5556 23H4.88889C3.60556 23 2.44444 21.9075 2.44444 20.7V19.55H0V17.25H2.44444V12.65H0V10.35H2.44444V5.75H0ZM4.88889 10.35H2.44444V12.65H4.88889V10.35ZM4.88889 5.75V3.45H2.44444V5.75H4.88889ZM4.88889 19.55V17.25H2.44444V19.55H4.88889Z" fill="#D3A3F1"/>
</svg>
