<svg width="197" height="86" viewBox="0 0 197 86" fill="none" xmlns="http://www.w3.org/2000/svg">
<g filter="url(#filter0_d_1_1358)">
<mask id="path-1-inside-1_1_1358" fill="white">
<path d="M54.2847 79.1214V70.2909L57.3863 70.3201C58.1786 75.9175 61.7765 77.7021 65.4356 77.7329C69.1717 77.7329 72.6989 75.6833 72.6989 69.6183C72.6989 63.5533 66.0917 61.4946 62.4206 59.2305C58.7495 56.9664 54.5179 53.9557 54.5179 47.2714C54.5179 40.5872 60.8427 36.7883 65.6215 36.4136C70.4003 36.0388 71.4761 36.3988 77.3545 37.7671V46.3304H74.2102C73.2521 41.2927 70.244 39.3479 66.7704 39.3479C63.2967 39.3479 60.1689 41.755 60.0562 46.2002C59.9435 50.6454 62.5203 52.3005 67.7889 55.5492C73.0578 58.7978 78.0806 60.8458 78.066 68.9169C77.7989 77.4021 72.1517 80.7917 65.785 80.7917C61.2305 80.7917 58.1762 80.235 54.2847 79.1214ZM88.552 65.4928C89.2276 70.5654 91.6255 76.8491 97.8002 76.8367C103.975 76.8244 107.183 71.3277 107.976 69.8616L110.504 71.898C108.988 75.1689 104.17 81.6579 95.9791 81.6579C87.7886 81.6579 82.141 73.5585 82.141 61.756C82.141 55.91 86.2003 46.5359 96.1857 46.5359C106.171 46.5359 107.898 57.3297 108.804 60.709L88.552 65.4928ZM101.992 59.0974C100.872 55.5282 99.0326 49.0531 93.5243 49.9337C88.016 50.8143 87.3873 57.8289 87.9594 62.3855L101.992 59.0974ZM121.598 74.2312C121.598 78.2803 123.83 78.2868 124.966 78.6114V80.3204H113.095V78.611C113.993 78.2445 116.502 78.3612 116.502 74.2312V40.6607C116.432 38.999 116.198 37.0546 112.51 37.0546V34.6643H121.598M149.362 40.7856H146.17C145.998 40.4672 145.796 37.5226 142.663 37.567C139.53 37.6114 138.426 40.6792 138.426 45.3122V49.7718H145.355V53.1445H138.426V74.2312C138.426 78.136 140.493 78.3624 141.839 78.6114V80.3204H129.712V78.611C131.081 78.2194 133.038 78.1434 133.038 74.2312V53.145H129.57V51.4869C134.349 50.6746 131.869 49.4414 133.857 42.6507C135.845 35.8601 141.35 34.6647 145.298 34.6647C149.247 34.6647 149.362 34.8903 149.362 34.8903L149.362 40.7856ZM31.5389 68.3938L27.9144 62.5252L51.182 71.1411L30.6035 86L32.9417 79.0076C-46.4559 74.9363 32.3584 20.5558 114.409 5.02957C196.459 -10.4966 230.102 11.4661 155.731 49.7307L158.4 42.5464L151.982 39.8068C222.471 -0.12405 152.216 -3.62786 92.255 12.8693C32.2938 29.3665 -19.1556 63.4127 31.5389 68.3938Z"/>
</mask>
<path d="M54.2847 79.1214V70.2909L57.3863 70.3201C58.1786 75.9175 61.7765 77.7021 65.4356 77.7329C69.1717 77.7329 72.6989 75.6833 72.6989 69.6183C72.6989 63.5533 66.0917 61.4946 62.4206 59.2305C58.7495 56.9664 54.5179 53.9557 54.5179 47.2714C54.5179 40.5872 60.8427 36.7883 65.6215 36.4136C70.4003 36.0388 71.4761 36.3988 77.3545 37.7671V46.3304H74.2102C73.2521 41.2927 70.244 39.3479 66.7704 39.3479C63.2967 39.3479 60.1689 41.755 60.0562 46.2002C59.9435 50.6454 62.5203 52.3005 67.7889 55.5492C73.0578 58.7978 78.0806 60.8458 78.066 68.9169C77.7989 77.4021 72.1517 80.7917 65.785 80.7917C61.2305 80.7917 58.1762 80.235 54.2847 79.1214ZM88.552 65.4928C89.2276 70.5654 91.6255 76.8491 97.8002 76.8367C103.975 76.8244 107.183 71.3277 107.976 69.8616L110.504 71.898C108.988 75.1689 104.17 81.6579 95.9791 81.6579C87.7886 81.6579 82.141 73.5585 82.141 61.756C82.141 55.91 86.2003 46.5359 96.1857 46.5359C106.171 46.5359 107.898 57.3297 108.804 60.709L88.552 65.4928ZM101.992 59.0974C100.872 55.5282 99.0326 49.0531 93.5243 49.9337C88.016 50.8143 87.3873 57.8289 87.9594 62.3855L101.992 59.0974ZM121.598 74.2312C121.598 78.2803 123.83 78.2868 124.966 78.6114V80.3204H113.095V78.611C113.993 78.2445 116.502 78.3612 116.502 74.2312V40.6607C116.432 38.999 116.198 37.0546 112.51 37.0546V34.6643H121.598M149.362 40.7856H146.17C145.998 40.4672 145.796 37.5226 142.663 37.567C139.53 37.6114 138.426 40.6792 138.426 45.3122V49.7718H145.355V53.1445H138.426V74.2312C138.426 78.136 140.493 78.3624 141.839 78.6114V80.3204H129.712V78.611C131.081 78.2194 133.038 78.1434 133.038 74.2312V53.145H129.57V51.4869C134.349 50.6746 131.869 49.4414 133.857 42.6507C135.845 35.8601 141.35 34.6647 145.298 34.6647C149.247 34.6647 149.362 34.8903 149.362 34.8903L149.362 40.7856ZM31.5389 68.3938L27.9144 62.5252L51.182 71.1411L30.6035 86L32.9417 79.0076C-46.4559 74.9363 32.3584 20.5558 114.409 5.02957C196.459 -10.4966 230.102 11.4661 155.731 49.7307L158.4 42.5464L151.982 39.8068C222.471 -0.12405 152.216 -3.62786 92.255 12.8693C32.2938 29.3665 -19.1556 63.4127 31.5389 68.3938Z" fill="white"/>
<path d="M54.2847 79.1214H53.2847V79.8754L54.0096 80.0828L54.2847 79.1214ZM54.2847 70.2909L54.2941 69.291L53.2847 69.2815V70.2909H54.2847ZM57.3863 70.3201L58.3764 70.18L58.2559 69.3283L57.3957 69.3202L57.3863 70.3201ZM65.4356 77.7329L65.4272 78.7329H65.4356V77.7329ZM77.3545 37.7671H78.3545V36.9731L77.5812 36.7931L77.3545 37.7671ZM77.3545 46.3304V47.3304H78.3545V46.3304H77.3545ZM74.2102 46.3304L73.2278 46.5173L73.3825 47.3304H74.2102V46.3304ZM67.7889 55.5492L67.264 56.4004L67.264 56.4004L67.7889 55.5492ZM78.066 68.9169L79.0655 68.9483L79.0659 68.9335L79.066 68.9187L78.066 68.9169ZM88.552 65.4928L88.3221 64.5195L87.4412 64.7276L87.5607 65.6248L88.552 65.4928ZM107.976 69.8616L108.603 69.0828L107.667 68.3291L107.096 69.386L107.976 69.8616ZM110.504 71.898L111.411 72.3185L111.74 71.6095L111.131 71.1193L110.504 71.898ZM108.804 60.709L109.034 61.6822L110.037 61.4453L109.77 60.45L108.804 60.709ZM101.992 59.0974L102.22 60.071L103.269 59.8254L102.946 58.798L101.992 59.0974ZM87.9594 62.3855L86.9672 62.5101L87.1057 63.6126L88.1876 63.3591L87.9594 62.3855ZM124.966 78.6114H125.966V77.8573L125.241 77.65L124.966 78.6114ZM124.966 80.3204V81.3204H125.966V80.3204H124.966ZM113.095 80.3204H112.095V81.3204H113.095V80.3204ZM113.095 78.611L112.717 77.6852L112.095 77.9391V78.611H113.095ZM116.502 40.6607H117.502V40.6398L117.501 40.6188L116.502 40.6607ZM112.51 37.0546H111.51V38.0546H112.51V37.0546ZM112.51 34.6643V33.6643H111.51V34.6643H112.51ZM149.362 40.7856V41.7856H150.362L150.362 40.7856L149.362 40.7856ZM146.17 40.7856L145.291 41.2617L145.574 41.7856H146.17V40.7856ZM142.663 37.567L142.677 38.5669L142.663 37.567ZM138.426 49.7718H137.426V50.7718H138.426V49.7718ZM145.355 49.7718H146.355V48.7718H145.355V49.7718ZM145.355 53.1445V54.1445H146.355V53.1445H145.355ZM138.426 53.1445V52.1445H137.426V53.1445H138.426ZM141.839 78.6114H142.839V77.7795L142.021 77.6281L141.839 78.6114ZM141.839 80.3204V81.3204H142.839V80.3204H141.839ZM129.712 80.3204H128.712V81.3204H129.712V80.3204ZM129.712 78.611L129.437 77.6496L128.712 77.8569V78.611H129.712ZM133.038 53.145H134.038V52.145H133.038V53.145ZM129.57 53.145H128.57V54.145H129.57V53.145ZM129.57 51.4869L129.402 50.5011L128.57 50.6426V51.4869H129.57ZM149.362 34.8903L150.362 34.8903L150.362 34.6507L150.253 34.4372L149.362 34.8903ZM31.5389 68.3938L31.4411 69.389L33.4508 69.5865L32.3897 67.8683L31.5389 68.3938ZM27.9144 62.5252L28.2616 61.5874L25.5367 60.5784L27.0636 63.0507L27.9144 62.5252ZM51.182 71.1411L51.7674 71.9519L53.2873 70.8544L51.5292 70.2033L51.182 71.1411ZM30.6035 86L29.6551 85.6829L28.6697 88.6298L31.1889 86.8107L30.6035 86ZM32.9417 79.0076L33.8901 79.3247L34.3076 78.0763L32.9929 78.0089L32.9417 79.0076ZM155.731 49.7307L154.793 49.3824L153.895 51.7997L156.188 50.6199L155.731 49.7307ZM158.4 42.5464L159.337 42.8947L159.67 42.001L158.793 41.6267L158.4 42.5464ZM151.982 39.8068L151.489 38.9368L149.731 39.933L151.59 40.7266L151.982 39.8068ZM55.2847 79.1214V70.2909H53.2847V79.1214H55.2847ZM54.2753 71.2909L57.3769 71.3201L57.3957 69.3202L54.2941 69.291L54.2753 71.2909ZM56.3962 70.4603C56.8211 73.4626 58.0215 75.5606 59.7162 76.8988C61.3948 78.2244 63.4466 78.7162 65.4272 78.7329L65.444 76.733C63.7655 76.7188 62.1888 76.3029 60.9556 75.3292C59.7385 74.368 58.7437 72.7751 58.3764 70.18L56.3962 70.4603ZM65.4356 78.7329C67.4753 78.7329 69.5668 78.173 71.1539 76.6779C72.7543 75.1704 73.6989 72.8476 73.6989 69.6183H71.6989C71.6989 72.454 70.8798 74.1885 69.7826 75.2221C68.6722 76.2681 67.1321 76.7329 65.4356 76.7329V78.7329ZM73.6989 69.6183C73.6989 66.144 71.7763 63.8501 69.5297 62.1941C68.4132 61.3711 67.1899 60.6842 66.0462 60.0737C64.8768 59.4495 63.8279 58.9236 62.9455 58.3794L61.8957 60.0817C62.8488 60.6695 64.0025 61.2499 65.1044 61.8381C66.232 62.4399 67.3488 63.0712 68.343 63.804C70.3178 65.2596 71.6989 67.0275 71.6989 69.6183H73.6989ZM62.9455 58.3794C61.1191 57.253 59.2714 56.0084 57.8694 54.2788C56.4917 52.5792 55.5179 50.376 55.5179 47.2714H53.5179C53.5179 50.8511 54.6599 53.4954 56.3158 55.5382C57.9474 57.5512 60.051 58.944 61.8957 60.0817L62.9455 58.3794ZM55.5179 47.2714C55.5179 44.2781 56.9241 41.9213 58.9213 40.2418C60.9366 38.5469 63.5137 37.5819 65.6996 37.4105L65.5433 35.4166C62.9505 35.6199 59.9757 36.7418 57.634 38.7111C55.2741 40.6957 53.5179 43.5804 53.5179 47.2714H55.5179ZM65.6996 37.4105C68.0554 37.2258 69.4406 37.2269 70.943 37.4278C72.4829 37.6339 74.1563 38.0494 77.1278 38.7411L77.5812 36.7931C74.6743 36.1165 72.8705 35.6679 71.2082 35.4455C69.5084 35.2181 67.9663 35.2266 65.5433 35.4166L65.6996 37.4105ZM76.3545 37.7671V46.3304H78.3545V37.7671H76.3545ZM77.3545 45.3304H74.2102V47.3304H77.3545V45.3304ZM75.1926 46.1436C74.6821 43.4591 73.6021 41.4876 72.0833 40.1897C70.5624 38.8903 68.6969 38.3479 66.7704 38.3479V40.3479C68.3175 40.3479 69.6929 40.7779 70.784 41.7103C71.8771 42.6443 72.7803 44.164 73.2278 46.5173L75.1926 46.1436ZM66.7704 38.3479C64.8041 38.3479 62.901 39.0303 61.4677 40.3787C60.0255 41.7356 59.119 43.7103 59.0565 46.1748L61.0559 46.2255C61.1061 44.2448 61.8199 42.7934 62.8382 41.8354C63.8653 40.869 65.263 40.3479 66.7704 40.3479V38.3479ZM59.0565 46.1748C58.9938 48.6473 59.6979 50.4307 61.1748 52.0071C62.5747 53.5014 64.6695 54.8006 67.264 56.4004L68.3137 54.698C65.6396 53.0491 63.8117 51.8964 62.6343 50.6397C61.5338 49.465 61.0059 48.1983 61.0559 46.2255L59.0565 46.1748ZM67.264 56.4004C69.9972 58.0856 72.3971 59.3135 74.199 61.1291C75.9157 62.8588 77.0728 65.1304 77.066 68.9151L79.066 68.9187C79.0737 64.6323 77.7268 61.8444 75.6185 59.7202C73.5955 57.6818 70.8495 56.2614 68.3137 54.698L67.264 56.4004ZM77.0665 68.8854C76.9402 72.8961 75.5555 75.5798 73.5646 77.2749C71.5524 78.9881 68.8023 79.7917 65.785 79.7917V81.7917C69.1344 81.7917 72.3913 80.9005 74.8611 78.7977C77.3523 76.6767 78.9246 73.4229 79.0655 68.9483L77.0665 68.8854ZM65.785 79.7917C61.3396 79.7917 58.3788 79.2528 54.5598 78.16L54.0096 80.0828C57.9737 81.2171 61.1214 81.7917 65.785 81.7917V79.7917ZM87.5607 65.6248C87.9088 68.2379 88.7077 71.2436 90.2796 73.6229C91.8764 76.0398 94.3049 77.8437 97.8022 77.8367L97.7982 75.8367C95.1208 75.8421 93.263 74.5103 91.9483 72.5204C90.6087 70.4927 89.8708 67.8203 89.5432 65.3607L87.5607 65.6248ZM97.8022 77.8367C101.212 77.8299 103.789 76.3021 105.588 74.6259C107.378 72.9577 108.44 71.1062 108.855 70.3371L107.096 69.386C106.719 70.083 105.78 71.7129 104.225 73.1627C102.677 74.6045 100.563 75.8312 97.7982 75.8367L97.8022 77.8367ZM107.348 70.6403L109.876 72.6768L111.131 71.1193L108.603 69.0828L107.348 70.6403ZM109.596 71.4775C108.149 74.6005 103.596 80.6579 95.9791 80.6579V82.6579C104.744 82.6579 109.826 75.7372 111.411 72.3185L109.596 71.4775ZM95.9791 80.6579C92.2551 80.6579 89.0848 78.8314 86.8094 75.5617C84.5193 72.2707 83.141 67.5103 83.141 61.756H81.141C81.141 67.8042 82.5865 72.9947 85.1678 76.7041C87.7639 80.4347 91.5126 82.6579 95.9791 82.6579V80.6579ZM83.141 61.756C83.141 59.0296 84.0972 55.436 86.2242 52.5465C88.3259 49.6914 91.5541 47.5359 96.1857 47.5359V45.5359C90.8319 45.5359 87.0378 48.0674 84.6135 51.3609C82.2145 54.6199 81.141 58.6364 81.141 61.756H83.141ZM96.1857 47.5359C100.722 47.5359 103.362 49.9465 105.033 52.8534C106.741 55.8271 107.359 59.1808 107.838 60.968L109.77 60.45C109.343 58.8578 108.644 55.1249 106.767 51.857C104.851 48.5222 101.635 45.5359 96.1857 45.5359V47.5359ZM108.574 59.7357L88.3221 64.5195L88.7819 66.466L109.034 61.6822L108.574 59.7357ZM102.946 58.798C102.4 57.0573 101.621 54.3935 100.239 52.2966C99.5391 51.2349 98.65 50.2609 97.5015 49.6192C96.3345 48.967 94.9584 48.6918 93.3665 48.9462L93.6822 50.9212C94.8445 50.7354 95.7639 50.9392 96.526 51.3651C97.3066 51.8013 97.9802 52.504 98.5689 53.3972C99.7637 55.21 100.464 57.5683 101.038 59.3968L102.946 58.798ZM93.3665 48.9462C90.1086 49.4671 88.3509 51.8311 87.5088 54.4779C86.6748 57.0991 86.671 60.151 86.9672 62.5101L88.9517 62.2609C88.6757 60.0634 88.7002 57.3297 89.4146 55.0843C90.1209 52.8645 91.4318 51.2809 93.6822 50.9212L93.3665 48.9462ZM88.1876 63.3591L102.22 60.071L101.764 58.1238L87.7313 61.4118L88.1876 63.3591ZM120.598 74.2312C120.598 76.4397 121.215 77.8023 122.24 78.6052C122.725 78.9853 123.241 79.1888 123.676 79.3181C123.893 79.3824 124.099 79.431 124.27 79.4705C124.453 79.5127 124.58 79.5413 124.691 79.5729L125.241 77.65C125.067 77.6004 124.876 77.5578 124.72 77.5217C124.552 77.4829 124.398 77.4461 124.245 77.4008C123.943 77.3111 123.688 77.199 123.473 77.0308C123.098 76.7369 122.598 76.0718 122.598 74.2312H120.598ZM123.966 78.6114V80.3204H125.966V78.6114H123.966ZM124.966 79.3204H113.095V81.3204H124.966V79.3204ZM114.095 80.3204V78.611H112.095V80.3204H114.095ZM113.473 79.5369C113.515 79.5196 113.592 79.4957 113.749 79.4552C113.886 79.4199 114.085 79.3712 114.285 79.3131C114.697 79.1932 115.218 79.0052 115.72 78.6437C116.793 77.87 117.502 76.515 117.502 74.2312H115.502C115.502 76.0774 114.956 76.7291 114.55 77.0211C114.312 77.1925 114.038 77.3022 113.727 77.3926C113.565 77.4396 113.421 77.4742 113.249 77.5188C113.096 77.5582 112.899 77.6109 112.717 77.6852L113.473 79.5369ZM117.502 74.2312V40.6607H115.502V74.2312H117.502ZM117.501 40.6188C117.467 39.8113 117.4 38.6025 116.658 37.6287C115.865 36.5869 114.515 36.0546 112.51 36.0546V38.0546C114.193 38.0546 114.804 38.4944 115.067 38.8403C115.382 39.2541 115.467 39.8484 115.503 40.7026L117.501 40.6188ZM113.51 37.0546V34.6643H111.51V37.0546H113.51ZM112.51 35.6643H121.598V33.6643H112.51V35.6643ZM149.362 39.7856H146.17V41.7856H149.362V39.7856ZM147.049 40.3096C147.091 40.3866 147.104 40.4414 147.094 40.4092C147.09 40.3929 147.082 40.3636 147.068 40.3082C147.042 40.2077 147.002 40.0453 146.951 39.8656C146.846 39.5026 146.678 39.014 146.383 38.5246C146.086 38.0307 145.653 37.5235 145.019 37.1469C144.382 36.7675 143.596 36.5537 142.649 36.5671L142.677 38.5669C143.297 38.5581 143.711 38.6957 143.997 38.8659C144.288 39.0388 144.503 39.2794 144.67 39.5559C144.839 39.8369 144.949 40.1414 145.029 40.4187C145.069 40.5591 145.098 40.6786 145.129 40.8C145.143 40.8554 145.16 40.9221 145.179 40.9838C145.193 41.0298 145.227 41.1449 145.291 41.2617L147.049 40.3096ZM142.649 36.5671C141.696 36.5806 140.845 36.8274 140.121 37.3148C139.402 37.7986 138.866 38.4803 138.473 39.2759C137.702 40.837 137.426 42.9496 137.426 45.3122H139.426C139.426 43.0418 139.702 41.3039 140.266 40.1618C140.541 39.6058 140.868 39.2226 141.238 38.974C141.602 38.7289 142.064 38.5756 142.677 38.5669L142.649 36.5671ZM137.426 45.3122V49.7718H139.426V45.3122H137.426ZM138.426 50.7718H145.355V48.7718H138.426V50.7718ZM144.355 49.7718V53.1445H146.355V49.7718H144.355ZM145.355 52.1445H138.426V54.1445H145.355V52.1445ZM137.426 53.1445V74.2312H139.426V53.1445H137.426ZM137.426 74.2312C137.426 76.3549 137.993 77.7245 138.984 78.5578C139.912 79.3374 141.062 79.4846 141.657 79.5947L142.021 77.6281C141.271 77.4893 140.714 77.3988 140.271 77.0267C139.892 76.7084 139.426 76.0123 139.426 74.2312H137.426ZM140.839 78.6114V80.3204H142.839V78.6114H140.839ZM141.839 79.3204H129.712V81.3204H141.839V79.3204ZM130.712 80.3204V78.611H128.712V80.3204H130.712ZM129.987 79.5725C130.206 79.5099 130.747 79.3845 131.121 79.2618C131.565 79.1163 132.069 78.8971 132.533 78.5058C133.507 77.6846 134.038 76.3435 134.038 74.2312H132.038C132.038 76.0311 131.591 76.6841 131.244 76.9769C131.048 77.1426 130.806 77.2603 130.498 77.3614C130.12 77.4854 129.903 77.5164 129.437 77.6496L129.987 79.5725ZM134.038 74.2312V53.145H132.038V74.2312H134.038ZM133.038 52.145H129.57V54.145H133.038V52.145ZM130.57 53.145V51.4869H128.57V53.145H130.57ZM129.737 52.4728C130.941 52.2681 131.885 52.0122 132.557 51.5324C133.32 50.9876 133.606 50.2568 133.744 49.4873C133.81 49.1212 133.848 48.7164 133.883 48.3018C133.92 47.8751 133.955 47.4183 134.014 46.8937C134.13 45.8561 134.339 44.5638 134.816 42.9317L132.897 42.3698C132.381 44.133 132.153 45.5414 132.026 46.6703C131.964 47.2289 131.925 47.7218 131.89 48.1313C131.854 48.5529 131.823 48.8709 131.775 49.1341C131.688 49.6233 131.573 49.7775 131.395 49.9046C131.126 50.0967 130.587 50.2996 129.402 50.5011L129.737 52.4728ZM134.816 42.9317C135.737 39.7886 137.438 38.0093 139.319 36.9905C141.234 35.9531 143.41 35.6647 145.298 35.6647V33.6647C143.238 33.6647 140.688 33.9741 138.366 35.232C136.01 36.5085 133.965 38.7222 132.897 42.3698L134.816 42.9317ZM145.298 35.6647C147.262 35.6647 148.235 35.7212 148.703 35.7718C148.942 35.7975 149.012 35.8181 149.002 35.815C148.997 35.8137 148.936 35.7964 148.855 35.7499C148.812 35.7255 148.75 35.6858 148.684 35.6252C148.65 35.5943 148.613 35.5561 148.577 35.5098C148.558 35.4866 148.54 35.4612 148.522 35.4335C148.513 35.4196 148.504 35.4052 148.495 35.3902C148.491 35.3827 148.487 35.375 148.483 35.3672C148.48 35.3633 148.477 35.3574 148.476 35.3554C148.473 35.3494 148.47 35.3434 149.362 34.8903C150.253 34.4372 150.25 34.4312 150.247 34.4252C150.246 34.4232 150.243 34.4173 150.241 34.4134C150.236 34.4056 150.232 34.3979 150.228 34.3904C150.219 34.3753 150.21 34.3608 150.201 34.3468C150.183 34.3189 150.164 34.2932 150.146 34.2695C150.108 34.2224 150.07 34.183 150.035 34.1504C149.965 34.0865 149.897 34.0419 149.843 34.0114C149.74 33.9525 149.639 33.9176 149.562 33.8951C149.407 33.8498 149.202 33.8139 148.918 33.7833C148.342 33.7211 147.283 33.6647 145.298 33.6647V35.6647ZM148.362 34.8904L148.362 40.7857L150.362 40.7856L150.362 34.8903L148.362 34.8904ZM32.3897 67.8683L28.7652 61.9997L27.0636 63.0507L30.6881 68.9193L32.3897 67.8683ZM27.5671 63.463L50.8347 72.0789L51.5292 70.2033L28.2616 61.5874L27.5671 63.463ZM50.5966 70.3304L30.0181 85.1893L31.1889 86.8107L51.7674 71.9519L50.5966 70.3304ZM31.5519 86.3171L33.8901 79.3247L31.9934 78.6904L29.6551 85.6829L31.5519 86.3171ZM32.9929 78.0089C23.1155 77.5024 15.7729 76.2158 10.6206 74.3561C5.44916 72.4896 2.64729 70.1076 1.55813 67.5256C0.482863 64.9766 0.954588 61.9302 3.05117 58.4177C5.14807 54.9047 8.79322 51.0701 13.7573 47.0947C33.6276 31.1819 73.6757 13.7551 114.595 6.01214L114.223 4.04701C73.0913 11.8302 32.7072 29.3568 12.5072 45.5336C7.45369 49.5806 3.6039 53.5895 1.33384 57.3926C-0.936538 61.1963 -1.70377 64.9387 -0.284626 68.303C1.12063 71.6343 4.54654 74.2901 9.94162 76.2373C15.3559 78.1915 22.9185 79.4949 32.8905 80.0062L32.9929 78.0089ZM114.595 6.01214C135.059 2.13961 152.469 0.612275 165.904 1.08244C172.621 1.31753 178.321 2.05133 182.901 3.22942C187.494 4.41086 190.887 6.02067 193.063 7.95585C195.205 9.86067 196.167 12.072 195.976 14.6023C195.78 17.192 194.365 20.2593 191.421 23.7782C185.531 30.8176 173.836 39.2909 155.273 48.8415L156.188 50.6199C174.811 41.0382 186.8 32.4169 192.955 25.0616C196.033 21.3831 197.731 17.928 197.971 14.753C198.215 11.5186 196.936 8.72297 194.392 6.4613C191.883 4.23 188.147 2.5138 183.399 1.29248C178.638 0.0678004 172.786 -0.677919 165.974 -0.91634C152.347 -1.39321 134.783 0.156447 114.223 4.04701L114.595 6.01214ZM156.668 50.079L159.337 42.8947L157.463 42.1981L154.793 49.3824L156.668 50.079ZM158.793 41.6267L152.375 38.8871L151.59 40.7266L158.008 43.4661L158.793 41.6267ZM152.475 40.6769C161.315 35.6696 167.981 31.215 172.75 27.2795C177.499 23.3606 180.452 19.8871 181.741 16.8195C182.392 15.27 182.633 13.7898 182.431 12.3986C182.228 11.0005 181.588 9.76808 180.604 8.70626C178.67 6.61959 175.388 5.16945 171.265 4.2039C162.98 2.26357 150.65 2.13719 136.698 3.50806C122.723 4.88132 107.033 7.76627 91.9897 11.9051L92.5202 13.8335C107.458 9.72376 123.035 6.86024 136.894 5.49848C150.777 4.13433 162.847 4.28637 170.809 6.15121C174.81 7.08824 177.614 8.42237 179.137 10.0658C179.882 10.8691 180.314 11.7382 180.452 12.6861C180.59 13.6409 180.441 14.7512 179.898 16.0447C178.797 18.6631 176.144 21.8856 171.477 25.7369C166.83 29.5716 160.272 33.9614 151.489 38.9368L152.475 40.6769ZM91.9897 11.9051C61.9513 20.1696 33.95 32.8507 19.7771 44.1687C16.2298 47.0014 13.4934 49.7916 11.8159 52.4532C10.1409 55.1109 9.44196 57.7774 10.2573 60.2498C11.0692 62.7116 13.2842 64.6785 16.7365 66.1723C20.1991 67.6706 25.0557 68.7616 31.4411 69.389L31.6367 67.3986C25.3485 66.7807 20.7234 65.7182 17.5307 64.3367C14.3276 62.9508 12.7135 61.3117 12.1567 59.6234C11.6034 57.9457 11.9963 55.9181 13.5079 53.5196C15.0171 51.125 17.562 48.497 21.0251 45.7315C34.8934 34.6568 62.5975 22.0662 92.5202 13.8335L91.9897 11.9051Z" fill="black" mask="url(#path-1-inside-1_1_1358)"/>
</g>
<defs>
<filter id="filter0_d_1_1358" x="-4" y="0" width="205" height="94" filterUnits="userSpaceOnUse" color-interpolation-filters="sRGB">
<feFlood flood-opacity="0" result="BackgroundImageFix"/>
<feColorMatrix in="SourceAlpha" type="matrix" values="0 0 0 0 0 0 0 0 0 0 0 0 0 0 0 0 0 0 127 0" result="hardAlpha"/>
<feOffset dy="4"/>
<feGaussianBlur stdDeviation="2"/>
<feComposite in2="hardAlpha" operator="out"/>
<feColorMatrix type="matrix" values="0 0 0 0 0 0 0 0 0 0 0 0 0 0 0 0 0 0 0.25 0"/>
<feBlend mode="normal" in2="BackgroundImageFix" result="effect1_dropShadow_1_1358"/>
<feBlend mode="normal" in="SourceGraphic" in2="effect1_dropShadow_1_1358" result="shape"/>
</filter>
</defs>
</svg>
