<svg width="308" height="324" viewBox="0 0 308 324" fill="none" xmlns="http://www.w3.org/2000/svg">
<g filter="url(#filter0_dd_1_1357)">
<path d="M170.09 0L151.189 29.7579C126.797 9.57104 92.3398 3.31313 65.5624 8.9247C29.1216 16.5588 -1.46538 50.2426 0.0543004 98.9317C1.65629 150.251 36.6644 187.741 70.2432 218.628C87.0326 234.07 104.264 248.128 117.037 260.76C142.254 284.081 154.471 324 154.471 324C154.471 324 170.889 283.261 191.906 262.673C205.083 249.869 222.471 235.553 239.633 219.586C273.96 187.65 309.497 148.357 307.951 97.9759C307.951 14.235 226.848 15.1217 195.61 44.2326C208.54 37.2311 222.457 35.7447 234.955 38.6087C257.906 43.869 276.907 63.2124 278.004 98.9338C279.049 133.113 251.846 166.092 219.044 196.605C202.644 211.86 185.751 225.666 171.316 239.691C163.65 247.143 160.114 253.737 154.471 261.461C148.825 253.256 145.328 246.353 137.626 238.735C100.591 195.63 41.7508 149.124 39.3993 97.9753C38.9175 55.3749 87.6482 44.1573 113.841 63.0296L83.1106 80.323C128.208 87.953 166.587 105.902 207.306 132.076L170.09 0H170.09Z" fill="#D3A3F1"/>
<path d="M205.63 129.817C166.491 104.896 129.31 87.5902 86.0443 79.8196L114.332 63.9011L115.696 63.1333L114.426 62.2182C101.034 52.5694 81.9475 50.6367 66.2663 56.5138C50.5199 62.4153 38.1532 76.2197 38.3994 97.9866L38.3996 98.0039L38.4004 98.0212C39.5922 123.945 55.0837 148.578 74.7402 172.014C84.5811 183.747 95.5036 195.222 106.263 206.441C106.981 207.19 107.699 207.938 108.415 208.685C118.439 219.132 128.247 229.353 136.867 239.387L136.894 239.417L136.922 239.446C142.548 245.009 145.869 250.143 149.527 255.797C150.819 257.795 152.154 259.858 153.647 262.028L154.446 263.189L155.278 262.051C156.858 259.888 158.264 257.831 159.63 255.832C163.211 250.592 166.522 245.746 172.013 240.409C179.211 233.415 187.026 226.472 195.104 219.36C196.05 218.527 196.999 217.693 197.951 216.855C205.128 210.543 212.474 204.081 219.725 197.337C236.149 182.06 251.217 166.124 262.052 149.695C272.886 133.266 279.535 116.273 279.004 98.9032C278.45 80.8683 273.372 66.8874 265.464 56.7339C257.555 46.5796 246.86 40.3114 235.179 37.6339L234.955 38.6087L235.179 37.6339C224.821 35.2606 213.515 35.8223 202.579 39.9473C218.501 29.0187 242.348 24.0434 263.231 29.7495C275.129 33.0003 286.038 39.7108 293.979 50.7409C301.923 61.7739 306.951 77.2029 306.951 97.9759V97.9913L306.952 98.0066C308.482 147.891 273.295 186.904 238.952 218.854C231.121 226.14 223.242 233.082 215.728 239.702C215.02 240.326 214.315 240.947 213.614 241.565C205.477 248.739 197.818 255.534 191.209 261.955L191.206 261.958C180.582 272.365 171.165 287.81 164.423 300.59C161.045 306.992 158.327 312.746 156.453 316.902C155.683 318.61 155.055 320.048 154.582 321.15C154.212 320.075 153.72 318.689 153.105 317.047C151.557 312.918 149.23 307.171 146.112 300.692C139.884 287.753 130.464 271.82 117.728 260.037C110.27 252.663 101.261 244.772 91.7297 236.424C84.9343 230.472 77.8734 224.288 70.9202 217.892C37.3364 187 2.64157 149.764 1.05381 98.9006C-0.451063 50.6856 29.8116 17.436 65.7674 9.90346L65.7675 9.90344C92.2772 4.34796 126.416 10.5545 150.551 30.5283L151.425 31.2513L152.033 30.2941L169.734 2.42575L205.63 129.817Z" stroke="black" stroke-width="2"/>
</g>
<defs>
<filter id="filter0_dd_1_1357" x="-4" y="0" width="316" height="332" filterUnits="userSpaceOnUse" color-interpolation-filters="sRGB">
<feFlood flood-opacity="0" result="BackgroundImageFix"/>
<feColorMatrix in="SourceAlpha" type="matrix" values="0 0 0 0 0 0 0 0 0 0 0 0 0 0 0 0 0 0 127 0" result="hardAlpha"/>
<feOffset dy="4"/>
<feGaussianBlur stdDeviation="2"/>
<feComposite in2="hardAlpha" operator="out"/>
<feColorMatrix type="matrix" values="0 0 0 0 0 0 0 0 0 0 0 0 0 0 0 0 0 0 0.25 0"/>
<feBlend mode="normal" in2="BackgroundImageFix" result="effect1_dropShadow_1_1357"/>
<feColorMatrix in="SourceAlpha" type="matrix" values="0 0 0 0 0 0 0 0 0 0 0 0 0 0 0 0 0 0 127 0" result="hardAlpha"/>
<feOffset dy="4"/>
<feGaussianBlur stdDeviation="2"/>
<feComposite in2="hardAlpha" operator="out"/>
<feColorMatrix type="matrix" values="0 0 0 0 0 0 0 0 0 0 0 0 0 0 0 0 0 0 0.25 0"/>
<feBlend mode="normal" in2="effect1_dropShadow_1_1357" result="effect2_dropShadow_1_1357"/>
<feBlend mode="normal" in="SourceGraphic" in2="effect2_dropShadow_1_1357" result="shape"/>
</filter>
</defs>
</svg>
