<svg width="79" height="80" viewBox="0 0 79 80" fill="none" xmlns="http://www.w3.org/2000/svg">
<path d="M8.15996 34.5305C3.66221 34.5305 0 38.4048 0 43.1631V70.7875C0 75.5457 3.66221 79.42 8.15996 79.42H17.952C19.7897 79.42 21.4803 78.764 22.848 77.6727V34.5305H8.15996Z" fill="#D3A3F1"/>
<path d="M78.3362 47.4794C78.3362 45.4042 77.5594 43.4704 76.2113 42.0443C77.7357 40.2798 78.5125 37.9144 78.3003 35.4525C77.9184 31.0636 74.181 27.6244 69.7878 27.6244H49.626C50.6248 24.4164 52.2241 18.536 52.2241 13.8122C52.2241 6.32259 46.2086 0.00012207 42.4321 0.00012207C39.0409 0.00012207 36.6189 2.02015 36.5145 2.10303C36.1294 2.43112 35.9042 2.92836 35.9042 3.45311V15.1623L26.5039 36.7059L26.1122 36.9165V73.9263C28.769 75.2522 32.1309 75.967 34.2721 75.967H64.2325C67.787 75.967 70.8976 73.4324 71.6287 69.9346C72.004 68.1355 71.7854 66.3227 71.0379 64.7481C73.45 63.4635 75.0723 60.8357 75.0723 57.8385C75.0723 56.6162 74.8079 55.4456 74.3053 54.3855C76.7173 53.101 78.3362 50.4732 78.3362 47.4794Z" fill="#D3A3F1"/>
</svg>
