<svg width="64" height="63" viewBox="0 0 64 63" fill="none" xmlns="http://www.w3.org/2000/svg">
<rect x="0.727783" y="0.170059" width="62.6519" height="62.6519" rx="8.49517" fill="#B7B7B7"/>
<rect x="0.726562" y="0.170029" width="62.6519" height="62.6519" rx="8.49517" fill="#938CC6"/>
<path d="M19 42.8036C19 44.2202 20.205 45.3695 21.6903 45.3695H41.419C42.9043 45.3695 44.1093 44.2202 44.1093 42.8036V28.2635H19V42.8036ZM36.9352 32.3262C36.9352 31.9734 37.2379 31.6847 37.6078 31.6847H39.8497C40.2196 31.6847 40.5223 31.9734 40.5223 32.3262V34.4644C40.5223 34.8172 40.2196 35.1059 39.8497 35.1059H37.6078C37.2379 35.1059 36.9352 34.8172 36.9352 34.4644V32.3262ZM36.9352 39.1686C36.9352 38.8158 37.2379 38.5271 37.6078 38.5271H39.8497C40.2196 38.5271 40.5223 38.8158 40.5223 39.1686V41.3068C40.5223 41.6596 40.2196 41.9483 39.8497 41.9483H37.6078C37.2379 41.9483 36.9352 41.6596 36.9352 41.3068V39.1686ZM29.7611 32.3262C29.7611 31.9734 30.0638 31.6847 30.4337 31.6847H32.6756C33.0455 31.6847 33.3482 31.9734 33.3482 32.3262V34.4644C33.3482 34.8172 33.0455 35.1059 32.6756 35.1059H30.4337C30.0638 35.1059 29.7611 34.8172 29.7611 34.4644V32.3262ZM29.7611 39.1686C29.7611 38.8158 30.0638 38.5271 30.4337 38.5271H32.6756C33.0455 38.5271 33.3482 38.8158 33.3482 39.1686V41.3068C33.3482 41.6596 33.0455 41.9483 32.6756 41.9483H30.4337C30.0638 41.9483 29.7611 41.6596 29.7611 41.3068V39.1686ZM22.587 32.3262C22.587 31.9734 22.8897 31.6847 23.2596 31.6847H25.5015C25.8714 31.6847 26.1741 31.9734 26.1741 32.3262V34.4644C26.1741 34.8172 25.8714 35.1059 25.5015 35.1059H23.2596C22.8897 35.1059 22.587 34.8172 22.587 34.4644V32.3262ZM22.587 39.1686C22.587 38.8158 22.8897 38.5271 23.2596 38.5271H25.5015C25.8714 38.5271 26.1741 38.8158 26.1741 39.1686V41.3068C26.1741 41.6596 25.8714 41.9483 25.5015 41.9483H23.2596C22.8897 41.9483 22.587 41.6596 22.587 41.3068V39.1686ZM41.419 21.4212H38.7288V18.8553C38.7288 18.3849 38.3252 18 37.832 18H36.0385C35.5453 18 35.1417 18.3849 35.1417 18.8553V21.4212H27.9676V18.8553C27.9676 18.3849 27.5641 18 27.0709 18H25.2773C24.7841 18 24.3806 18.3849 24.3806 18.8553V21.4212H21.6903C20.205 21.4212 19 22.5705 19 23.9871V26.553H44.1093V23.9871C44.1093 22.5705 42.9043 21.4212 41.419 21.4212Z" fill="white"/>
</svg>
