<svg width="28" height="28" viewBox="0 0 28 28" fill="none" xmlns="http://www.w3.org/2000/svg">
<path d="M9.5 6C8.90905 6 8.32389 6.1164 7.77792 6.34254C7.23196 6.56869 6.73588 6.90016 6.31802 7.31802C5.90016 7.73588 5.56869 8.23196 5.34254 8.77792C5.1164 9.32389 5 9.90905 5 10.5C5 11.0909 5.1164 11.6761 5.34254 12.2221C5.56869 12.768 5.90016 13.2641 6.31802 13.682C6.73588 14.0998 7.23196 14.4313 7.77792 14.6575C8.32389 14.8836 8.90905 15 9.5 15C10.6935 15 11.8381 14.5259 12.682 13.682C13.5259 12.8381 14 11.6935 14 10.5C14 9.30653 13.5259 8.16193 12.682 7.31802C11.8381 6.47411 10.6935 6 9.5 6ZM6.5 10.5C6.5 10.106 6.5776 9.71593 6.72836 9.35195C6.87913 8.98797 7.1001 8.65726 7.37868 8.37868C7.65726 8.1001 7.98797 7.87913 8.35195 7.72836C8.71593 7.5776 9.10603 7.5 9.5 7.5C9.89397 7.5 10.2841 7.5776 10.6481 7.72836C11.012 7.87913 11.3427 8.1001 11.6213 8.37868C11.8999 8.65726 12.1209 8.98797 12.2716 9.35195C12.4224 9.71593 12.5 10.106 12.5 10.5C12.5 11.2956 12.1839 12.0587 11.6213 12.6213C11.0587 13.1839 10.2956 13.5 9.5 13.5C8.70435 13.5 7.94129 13.1839 7.37868 12.6213C6.81607 12.0587 6.5 11.2956 6.5 10.5ZM20 8C19.0717 8 18.1815 8.36875 17.5251 9.02513C16.8687 9.6815 16.5 10.5717 16.5 11.5C16.5 12.4283 16.8687 13.3185 17.5251 13.9749C18.1815 14.6313 19.0717 15 20 15C20.9283 15 21.8185 14.6313 22.4749 13.9749C23.1313 13.3185 23.5 12.4283 23.5 11.5C23.5 10.5717 23.1313 9.6815 22.4749 9.02513C21.8185 8.36875 20.9283 8 20 8ZM18 11.5C18 10.9696 18.2107 10.4609 18.5858 10.0858C18.9609 9.71071 19.4696 9.5 20 9.5C20.5304 9.5 21.0391 9.71071 21.4142 10.0858C21.7893 10.4609 22 10.9696 22 11.5C22 12.0304 21.7893 12.5391 21.4142 12.9142C21.0391 13.2893 20.5304 13.5 20 13.5C19.4696 13.5 18.9609 13.2893 18.5858 12.9142C18.2107 12.5391 18 12.0304 18 11.5ZM2 19.25C2 18.6533 2.23705 18.081 2.65901 17.659C3.08097 17.2371 3.65326 17 4.25 17H14.75C15.3467 17 15.919 17.2371 16.341 17.659C16.7629 18.081 17 18.6533 17 19.25V19.781C16.9987 19.8619 16.993 19.9427 16.983 20.023C16.9604 20.2293 16.9237 20.4338 16.873 20.635C16.7077 21.2917 16.4129 21.9087 16.006 22.45C14.992 23.803 13.058 25 9.5 25C5.942 25 4.008 23.803 2.994 22.45C2.58746 21.9086 2.29304 21.2916 2.128 20.635C2.06271 20.3736 2.02088 20.1069 2.003 19.838C2.00175 19.819 2.00075 19.8 2 19.781V19.25ZM3.5 19.745V19.763L3.509 19.863C3.519 19.957 3.539 20.098 3.583 20.271C3.69959 20.7335 3.90694 21.1683 4.193 21.55C4.867 22.447 6.308 23.5 9.5 23.5C12.692 23.5 14.133 22.447 14.806 21.55C15.156 21.084 15.33 20.618 15.416 20.271C15.458 20.1043 15.4858 19.9344 15.499 19.763L15.5 19.745V19.25C15.5 19.0511 15.421 18.8603 15.2803 18.7197C15.1397 18.579 14.9489 18.5 14.75 18.5H4.25C4.05109 18.5 3.86032 18.579 3.71967 18.7197C3.57902 18.8603 3.5 19.0511 3.5 19.25V19.745ZM17.1 22.62C17.873 22.857 18.827 23 19.998 23C22.768 23 24.316 22.204 25.157 21.244C25.4933 20.8641 25.7424 20.4153 25.887 19.929C25.9441 19.7327 25.9806 19.5309 25.996 19.327L25.998 19.28V19.25C25.998 18.6533 25.7609 18.081 25.339 17.659C24.917 17.2371 24.3447 17 23.748 17H17.094C17.488 17.411 17.776 17.926 17.912 18.5H23.749C23.9462 18.5 24.1355 18.5776 24.2758 18.7161C24.4162 18.8546 24.4964 19.0428 24.499 19.24C24.4901 19.3308 24.4727 19.4205 24.447 19.508C24.3633 19.785 24.22 20.0404 24.027 20.256C23.556 20.796 22.48 21.5 19.998 21.5C19.057 21.5 18.318 21.399 17.737 21.243C17.5829 21.7268 17.3689 22.1893 17.1 22.62Z" fill="#1E1E1E"/>
</svg>
