<svg width="55" height="55" viewBox="0 0 55 55" fill="none" xmlns="http://www.w3.org/2000/svg">
<rect width="54.8398" height="54.8398" rx="27.4199" fill="#F0F6F5"/>
<path d="M12.7065 20.335L26.2284 38.9386L42.7752 22.9657L12.7065 20.335Z" fill="#B648F7"/>
<path d="M21.6299 21.1157L26.2281 38.9385L33.8513 22.1849L21.6299 21.1157Z" fill="#CC62FF"/>
<path d="M26.2284 38.9386L21.6301 21.1157L12.7065 20.335L26.2284 38.9386Z" fill="#D980FE"/>
<path d="M17.8012 14.1097L12.7064 20.3349L42.7751 22.9656L38.8385 15.9503L17.8012 14.1097Z" fill="#D775FE"/>
<path opacity="0.3" d="M33.8517 22.1848L28.3203 15.0299L21.6303 21.1156L33.8517 22.1848Z" fill="#E7B8FF"/>
<path d="M38.8391 15.9501L33.852 22.1847L42.7757 22.9654L38.8391 15.9501Z" fill="#CC62FF"/>
<path d="M17.8012 14.1097L21.63 21.1156L12.7064 20.3349L17.8012 14.1097Z" fill="#CC62FF"/>
</svg>
