<svg width="28" height="28" viewBox="0 0 28 28" fill="none" xmlns="http://www.w3.org/2000/svg">
<path d="M10.6571 24.2356V20.6683C10.6571 19.7576 11.4007 19.0194 12.318 19.0194H15.6712C16.1117 19.0194 16.5342 19.1931 16.8457 19.5023C17.1572 19.8116 17.3322 20.231 17.3322 20.6683V24.2356C17.3294 24.6142 17.4789 24.9782 17.7476 25.2469C18.0163 25.5156 18.3819 25.6667 18.7633 25.6667H21.051C22.1194 25.6694 23.145 25.25 23.9015 24.501C24.658 23.7519 25.0832 22.7349 25.0832 21.6742V11.5114C25.0832 10.6546 24.7006 9.84186 24.0386 9.29215L16.2562 3.12189C14.9024 2.04003 12.9628 2.07496 11.6495 3.20485L4.04468 9.29215C3.35137 9.82565 2.93698 10.6408 2.9165 11.5114V21.6638C2.9165 23.8745 4.72178 25.6667 6.94871 25.6667H9.18418C9.97627 25.6667 10.62 25.0323 10.6257 24.246L10.6571 24.2356Z" fill="#D3A3F1"/>
</svg>
