<svg width="28" height="28" viewBox="0 0 28 28" fill="none" xmlns="http://www.w3.org/2000/svg">
<path d="M14.6447 14.8298C14.3894 14.9383 14.1005 14.936 13.847 14.8233L5.05489 10.9137C4.2633 10.5617 4.2633 9.43826 5.05489 9.08626L13.847 5.17673C14.1005 5.06401 14.3894 5.06166 14.6447 5.17024L23.8365 9.07978C24.6479 9.42492 24.6479 10.5751 23.8365 10.9202L14.6447 14.8298Z" stroke="black"/>
<path d="M21 12.25V21.75C21 22.3023 20.5523 22.75 20 22.75H8C7.44772 22.75 7 22.3023 7 21.75V12.25" stroke="black"/>
<path d="M24.5 14C24.5 14.2761 24.7239 14.5 25 14.5C25.2761 14.5 25.5 14.2761 25.5 14H24.5ZM24.5 10V14H25.5V10H24.5Z" fill="black"/>
</svg>
