<svg width="58" height="58" viewBox="0 0 58 58" fill="none" xmlns="http://www.w3.org/2000/svg">
<g clip-path="url(#clip0_1_449)">
<path d="M29 34.4375C30.5015 34.4375 31.7188 33.2203 31.7188 31.7188C31.7188 30.2172 30.5015 29 29 29C27.4985 29 26.2812 30.2172 26.2812 31.7188C26.2812 33.2203 27.4985 34.4375 29 34.4375Z" fill="#666666"/>
<path d="M47.125 18.125H38.9688V11.7812C38.9688 9.13737 37.9185 6.60178 36.049 4.73228C34.1795 2.86278 31.6439 1.8125 29 1.8125C26.3561 1.8125 23.8205 2.86278 21.951 4.73228C20.0815 6.60178 19.0312 9.13737 19.0312 11.7812V18.125H10.875C9.91359 18.125 8.99156 18.5069 8.31174 19.1867C7.63192 19.8666 7.25 20.7886 7.25 21.75V47.125C7.25 48.0864 7.63192 49.0084 8.31174 49.6883C8.99156 50.3681 9.91359 50.75 10.875 50.75H47.125C48.0864 50.75 49.0084 50.3681 49.6883 49.6883C50.3681 49.0084 50.75 48.0864 50.75 47.125V21.75C50.75 20.7886 50.3681 19.8666 49.6883 19.1867C49.0084 18.5069 48.0864 18.125 47.125 18.125ZM30.8125 37.7906V41.6875C30.8125 42.1682 30.6215 42.6292 30.2816 42.9691C29.9417 43.309 29.4807 43.5 29 43.5C28.5193 43.5 28.0583 43.309 27.7184 42.9691C27.3785 42.6292 27.1875 42.1682 27.1875 41.6875V37.7906C25.7272 37.3553 24.4725 36.4088 23.6526 35.1244C22.8328 33.8399 22.5027 32.3033 22.7227 30.7955C22.9427 29.2876 23.6981 27.9094 24.8507 26.9127C26.0033 25.916 27.4762 25.3676 29 25.3676C30.5238 25.3676 31.9967 25.916 33.1493 26.9127C34.3019 27.9094 35.0573 29.2876 35.2773 30.7955C35.4973 32.3033 35.1672 33.8399 34.3474 35.1244C33.5275 36.4088 32.2728 37.3553 30.8125 37.7906ZM35.3438 18.125H22.6562V11.7812C22.6562 10.0988 23.3246 8.48523 24.5143 7.29554C25.704 6.10586 27.3175 5.4375 29 5.4375C30.6825 5.4375 32.296 6.10586 33.4857 7.29554C34.6754 8.48523 35.3438 10.0988 35.3438 11.7812V18.125Z" fill="#666666"/>
</g>
<defs>
<clipPath id="clip0_1_449">
<rect width="58" height="58" fill="white"/>
</clipPath>
</defs>
</svg>
