<svg width="58" height="58" viewBox="0 0 58 58" fill="none" xmlns="http://www.w3.org/2000/svg">
<g clip-path="url(#clip0_1_513)">
<path d="M50.75 10.875H7.25C6.7693 10.875 6.30828 11.066 5.96837 11.4059C5.62846 11.7458 5.4375 12.2068 5.4375 12.6875V43.5C5.4375 44.4614 5.81942 45.3834 6.49924 46.0633C7.17906 46.7431 8.10109 47.125 9.0625 47.125H48.9375C49.8989 47.125 50.8209 46.7431 51.5008 46.0633C52.1806 45.3834 52.5625 44.4614 52.5625 43.5V12.6875C52.5625 12.2068 52.3715 11.7458 52.0316 11.4059C51.6917 11.066 51.2307 10.875 50.75 10.875ZM48.9375 43.5H9.0625V16.8109L27.7766 33.9617C28.1107 34.2674 28.5471 34.4369 29 34.4369C29.4529 34.4369 29.8893 34.2674 30.2234 33.9617L48.9375 16.8109V43.5Z" fill="#666666"/>
</g>
<defs>
<clipPath id="clip0_1_513">
<rect width="58" height="58" fill="white"/>
</clipPath>
</defs>
</svg>
