<svg width="30" height="30" viewBox="0 0 30 30" fill="none" xmlns="http://www.w3.org/2000/svg">
<g clip-path="url(#clip0_203_230)">
<path d="M26.7856 1.07141H3.21415C2.03068 1.07141 1.07129 2.0308 1.07129 3.21427V16.0714C1.07129 17.2549 2.03068 18.2143 3.21415 18.2143H26.7856C27.9691 18.2143 28.9284 17.2549 28.9284 16.0714V3.21427C28.9284 2.0308 27.9691 1.07141 26.7856 1.07141Z" stroke="#4C4C4C" stroke-width="1.71429" stroke-linecap="round" stroke-linejoin="round"/>
<path d="M14.9999 12.8572C16.7751 12.8572 18.2142 11.4181 18.2142 9.64287C18.2142 7.86767 16.7751 6.42859 14.9999 6.42859C13.2247 6.42859 11.7856 7.86767 11.7856 9.64287C11.7856 11.4181 13.2247 12.8572 14.9999 12.8572Z" stroke="#4C4C4C" stroke-width="1.71429" stroke-linecap="round" stroke-linejoin="round"/>
<path d="M3.21436 23.5714H26.7858" stroke="#4C4C4C" stroke-width="1.71429" stroke-linecap="round" stroke-linejoin="round"/>
<path d="M5.35693 28.9286H24.6426" stroke="#4C4C4C" stroke-width="1.71429" stroke-linecap="round" stroke-linejoin="round"/>
<path d="M5.94587 10.1786C5.65001 10.1786 5.41016 9.93876 5.41016 9.64289C5.41016 9.34703 5.65001 9.10718 5.94587 9.10718" stroke="#4C4C4C" stroke-width="1.71429" stroke-linecap="round" stroke-linejoin="round"/>
<path d="M5.9458 10.1786C6.24167 10.1786 6.48152 9.93876 6.48152 9.64289C6.48152 9.34703 6.24167 9.10718 5.9458 9.10718" stroke="#4C4C4C" stroke-width="1.71429" stroke-linecap="round" stroke-linejoin="round"/>
<path d="M24.0538 10.1786C23.7579 10.1786 23.5181 9.93876 23.5181 9.64289C23.5181 9.34703 23.7579 9.10718 24.0538 9.10718" stroke="#4C4C4C" stroke-width="1.71429" stroke-linecap="round" stroke-linejoin="round"/>
<path d="M24.0537 10.1786C24.3496 10.1786 24.5894 9.93876 24.5894 9.64289C24.5894 9.34703 24.3496 9.10718 24.0537 9.10718" stroke="#4C4C4C" stroke-width="1.71429" stroke-linecap="round" stroke-linejoin="round"/>
</g>
<defs>
<clipPath id="clip0_203_230">
<rect width="30" height="30" fill="white"/>
</clipPath>
</defs>
</svg>
