<svg width="28" height="28" viewBox="0 0 28 28" fill="none" xmlns="http://www.w3.org/2000/svg">
<path d="M12.2499 5.25002C12.2499 4.22894 11.8443 3.24968 11.1223 2.52766C10.4002 1.80565 9.42099 1.40002 8.3999 1.40002C7.37882 1.40002 6.39956 1.80565 5.67754 2.52766C4.95553 3.24968 4.5499 4.22894 4.5499 5.25002C4.5499 6.27111 4.95553 7.25037 5.67754 7.97239C6.39956 8.6944 7.37882 9.10002 8.3999 9.10002C9.42099 9.10002 10.4002 8.6944 11.1223 7.97239C11.8443 7.25037 12.2499 6.27111 12.2499 5.25002ZM5.9499 5.25002C5.9499 4.92829 6.01327 4.6097 6.1364 4.31245C6.25952 4.0152 6.43999 3.74512 6.66749 3.51761C6.89499 3.29011 7.16508 3.10964 7.46233 2.98652C7.75958 2.8634 8.07816 2.80002 8.3999 2.80002C8.72164 2.80002 9.04023 2.8634 9.33748 2.98652C9.63472 3.10964 9.90481 3.29011 10.1323 3.51761C10.3598 3.74512 10.5403 4.0152 10.6634 4.31245C10.7865 4.6097 10.8499 4.92829 10.8499 5.25002C10.8499 5.89981 10.5918 6.52297 10.1323 6.98244C9.67285 7.4419 9.04968 7.70002 8.3999 7.70002C7.75012 7.70002 7.12696 7.4419 6.66749 6.98244C6.20803 6.52297 5.9499 5.89981 5.9499 5.25002ZM3.4999 10.5H9.3561C9.1265 10.934 8.9557 11.4044 8.8549 11.9H3.4999C3.31425 11.9 3.1362 11.9738 3.00493 12.105C2.87365 12.2363 2.7999 12.4144 2.7999 12.6V13.3C2.7999 15.064 4.3385 16.9596 7.1343 17.402C6.6835 17.71 6.3083 18.1202 6.0409 18.5976C3.0869 17.7982 1.3999 15.5218 1.3999 13.3V12.6C1.3999 12.0431 1.62115 11.5089 2.01498 11.1151C2.4088 10.7213 2.94295 10.5 3.4999 10.5ZM11.0305 10.5C11.7361 9.64602 12.8043 9.10002 13.9999 9.10002C14.8383 9.09856 15.6542 9.37142 16.323 9.87698C16.9919 10.3825 17.477 11.093 17.7043 11.9C17.9069 12.6203 17.8955 13.384 17.6714 14.0979C17.4474 14.8119 17.0203 15.4451 16.4424 15.9204C15.8645 16.3957 15.1608 16.6926 14.4171 16.7747C13.6733 16.8568 12.9218 16.7206 12.2541 16.3828C11.74 16.1212 11.2913 15.7474 10.9412 15.2891C10.591 14.8307 10.3482 14.2996 10.2309 13.7348C10.1136 13.1701 10.1246 12.5862 10.2633 12.0263C10.4019 11.4664 10.6632 10.9448 11.0305 10.5ZM11.7865 11.9C11.6486 12.1909 11.5694 12.506 11.5533 12.8275C11.5372 13.149 11.5846 13.4705 11.6927 13.7737C11.8009 14.0768 11.9677 14.3557 12.1837 14.5944C12.3996 14.8331 12.6605 15.0269 12.9513 15.1648C13.2422 15.3027 13.5573 15.382 13.8788 15.3981C14.2003 15.4141 14.5218 15.3667 14.8249 15.2586C15.1281 15.1504 15.407 14.9836 15.6457 14.7677C15.8844 14.5517 16.0782 14.2909 16.2161 14C16.4946 13.4124 16.5282 12.7383 16.3097 12.1259C16.0911 11.5135 15.6382 11.013 15.0506 10.7345C14.463 10.456 13.7889 10.4224 13.1765 10.641C12.5641 10.8595 12.065 11.3124 11.7865 11.9ZM21.9589 18.5976C21.6922 18.12 21.3179 17.7111 20.8655 17.4034C23.6599 16.9596 25.1999 15.0626 25.1999 13.3V12.6C25.1999 12.4144 25.1262 12.2363 24.9949 12.105C24.8636 11.9738 24.6856 11.9 24.4999 11.9H19.1449C19.046 11.4119 18.8777 10.9404 18.6451 10.5H24.4999C25.0569 10.5 25.591 10.7213 25.9848 11.1151C26.3787 11.5089 26.5999 12.0431 26.5999 12.6V13.3C26.5999 15.5218 24.9115 17.7968 21.9589 18.5976ZM20.2817 18.7194C19.8996 18.384 19.4083 18.1993 18.8999 18.2H9.0999C8.82392 18.1993 8.55051 18.2531 8.29539 18.3584C8.04028 18.4636 7.80848 18.6183 7.61333 18.8135C7.41818 19.0086 7.26352 19.2404 7.15825 19.4955C7.05298 19.7506 6.99916 20.024 6.9999 20.3V21C6.9999 23.7594 9.6039 26.6 13.9999 26.6C18.3959 26.6 20.9999 23.7594 20.9999 21V20.3C20.9999 19.67 20.7227 19.1044 20.2817 18.718V18.7194ZM8.3999 20.3C8.3999 20.1144 8.47365 19.9363 8.60493 19.8051C8.7362 19.6738 8.91425 19.6 9.0999 19.6H18.8999C19.0856 19.6 19.2636 19.6738 19.3949 19.8051C19.5262 19.9363 19.5999 20.1144 19.5999 20.3V21C19.5999 23.0132 17.5951 25.2 13.9999 25.2C10.4047 25.2 8.3999 23.0132 8.3999 21V20.3ZM19.5999 1.40002C20.621 1.40002 21.6003 1.80565 22.3223 2.52766C23.0443 3.24968 23.4499 4.22894 23.4499 5.25002C23.4499 6.27111 23.0443 7.25037 22.3223 7.97239C21.6003 8.6944 20.621 9.10002 19.5999 9.10002C18.5788 9.10002 17.5996 8.6944 16.8775 7.97239C16.1555 7.25037 15.7499 6.27111 15.7499 5.25002C15.7499 4.22894 16.1555 3.24968 16.8775 2.52766C17.5996 1.80565 18.5788 1.40002 19.5999 1.40002ZM19.5999 2.80002C18.9501 2.80002 18.327 3.05815 17.8675 3.51761C17.408 3.97708 17.1499 4.60024 17.1499 5.25002C17.1499 5.89981 17.408 6.52297 17.8675 6.98244C18.327 7.4419 18.9501 7.70002 19.5999 7.70002C20.2497 7.70002 20.8729 7.4419 21.3323 6.98244C21.7918 6.52297 22.0499 5.89981 22.0499 5.25002C22.0499 4.60024 21.7918 3.97708 21.3323 3.51761C20.8729 3.05815 20.2497 2.80002 19.5999 2.80002Z" fill="black"/>
</svg>
