<svg width="58" height="58" viewBox="0 0 58 58" fill="none" xmlns="http://www.w3.org/2000/svg">
<g clip-path="url(#clip0_1_427)">
<path d="M27.4594 35.7742C29.8912 34.1588 31.7383 31.8034 32.7274 29.0566C33.7164 26.3097 33.7949 23.3175 32.9512 20.5226C32.1075 17.7277 30.3864 15.2787 28.0426 13.538C25.6989 11.7973 22.857 10.8574 19.9375 10.8574C17.018 10.8574 14.1761 11.7973 11.8324 13.538C9.48862 15.2787 7.76752 17.7277 6.9238 20.5226C6.08008 23.3175 6.15857 26.3097 7.14765 29.0566C8.13672 31.8034 9.98383 34.1588 12.4156 35.7742C8.2672 37.2997 4.6855 40.0591 2.15235 43.6812C1.95448 43.9499 1.83671 44.2691 1.81265 44.6018C1.7886 44.9346 1.85924 45.2674 2.01641 45.5617C2.17172 45.8541 2.40324 46.099 2.68643 46.2705C2.96962 46.442 3.29393 46.5338 3.625 46.5359H36.25C36.5811 46.5338 36.9054 46.442 37.1886 46.2705C37.4718 46.099 37.7033 45.8541 37.8586 45.5617C38.0158 45.2674 38.0864 44.9346 38.0624 44.6018C38.0383 44.2691 37.9205 43.9499 37.7227 43.6812C35.1895 40.0591 31.6078 37.2997 27.4594 35.7742Z" fill="#666666"/>
<path d="M56.2102 43.6813C53.6626 40.0636 50.0753 37.3059 45.9242 35.7742C48.3637 34.1649 50.2185 31.8111 51.2128 29.0629C52.207 26.3148 52.2876 23.3191 51.4424 20.5214C50.5973 17.7238 48.8716 15.2738 46.5221 13.5357C44.1726 11.7977 41.3248 10.8645 38.4023 10.875C37.155 10.8816 35.9138 11.0491 34.7094 11.3734C34.4265 11.4584 34.1679 11.6096 33.9551 11.8145C33.7424 12.0194 33.5815 12.2721 33.4859 12.5516C33.3948 12.8288 33.3719 13.1239 33.4192 13.4118C33.4665 13.6998 33.5827 13.972 33.7578 14.2055C35.8069 16.9586 36.9841 20.2625 37.1375 23.691C37.291 27.1196 36.4137 30.5154 34.6188 33.4406C34.3886 33.8293 34.3099 34.2892 34.3976 34.7323C34.4854 35.1754 34.7336 35.5706 35.0945 35.8422C35.7742 36.3708 36.4313 36.9146 37.0656 37.4734L37.1789 37.5867C39.5972 39.8246 41.5592 42.5097 42.9563 45.4938C43.0996 45.8056 43.3296 46.0696 43.6188 46.2544C43.908 46.4392 44.2443 46.5369 44.5875 46.5359H54.7148C55.0459 46.5338 55.3702 46.4421 55.6534 46.2705C55.9366 46.099 56.1681 45.8541 56.3234 45.5617C56.4787 45.268 56.5503 44.9373 56.5303 44.6056C56.5103 44.274 56.3996 43.9542 56.2102 43.6813Z" fill="#666666"/>
</g>
<defs>
<clipPath id="clip0_1_427">
<rect width="58" height="58" fill="white"/>
</clipPath>
</defs>
</svg>
