<svg width="30" height="30" viewBox="0 0 30 30" fill="none" xmlns="http://www.w3.org/2000/svg">
<g clip-path="url(#clip0_203_176)">
<path d="M14.203 18.504C15.4608 17.6684 16.4162 16.4501 16.9278 15.0293C17.4394 13.6085 17.48 12.0608 17.0436 10.6152C16.6072 9.16957 15.717 7.90284 14.5047 7.00248C13.2924 6.10212 11.8224 5.61597 10.3124 5.61597C8.8023 5.61597 7.33235 6.10212 6.12006 7.00248C4.90776 7.90284 4.01754 9.16957 3.58114 10.6152C3.14473 12.0608 3.18533 13.6085 3.69692 15.0293C4.20851 16.4501 5.16391 17.6684 6.42174 18.504C4.276 19.293 2.42339 20.7203 1.11314 22.5938C1.0108 22.7328 0.949881 22.8978 0.937438 23.07C0.924995 23.2421 0.961534 23.4142 1.04283 23.5665C1.12316 23.7177 1.24291 23.8444 1.38939 23.9331C1.53587 24.0218 1.70362 24.0692 1.87486 24.0704H18.7499C18.9211 24.0692 19.0889 24.0218 19.2353 23.9331C19.3818 23.8444 19.5016 23.7177 19.5819 23.5665C19.6632 23.4142 19.6997 23.2421 19.6873 23.07C19.6748 22.8978 19.6139 22.7328 19.5116 22.5938C18.2013 20.7203 16.3487 19.293 14.203 18.504V18.504Z" fill="#666666"/>
<path d="M29.0743 22.5938C27.7566 20.7226 25.9011 19.2962 23.754 18.504C25.0158 17.6716 25.9752 16.4541 26.4894 15.0326C27.0037 13.6111 27.0454 12.0616 26.6082 10.6146C26.1711 9.16754 25.2785 7.90026 24.0632 7.00127C22.848 6.10228 21.375 5.6196 19.8633 5.62505C19.2182 5.62847 18.5762 5.71512 17.9532 5.88286C17.8069 5.92681 17.6731 6.00502 17.5631 6.111C17.453 6.21697 17.3698 6.34767 17.3204 6.49223C17.2732 6.63561 17.2614 6.78826 17.2859 6.9372C17.3103 7.08614 17.3704 7.22696 17.461 7.3477C18.5209 8.77173 19.1297 10.4807 19.2091 12.254C19.2885 14.0274 18.8347 15.7839 17.9063 17.2969C17.7873 17.498 17.7465 17.7359 17.7919 17.9651C17.8373 18.1942 17.9657 18.3986 18.1524 18.5391C18.504 18.8125 18.8438 19.0938 19.1719 19.3829L19.2305 19.4415C20.4814 20.599 21.4962 21.9878 22.2188 23.5313C22.293 23.6926 22.4119 23.8292 22.5615 23.9247C22.7111 24.0203 22.885 24.0709 23.0626 24.0704H28.3008C28.4721 24.0692 28.6398 24.0218 28.7863 23.9331C28.9328 23.8444 29.0525 23.7177 29.1329 23.5665C29.2132 23.4145 29.2502 23.2435 29.2399 23.0719C29.2295 22.9004 29.1722 22.735 29.0743 22.5938V22.5938Z" fill="#666666"/>
</g>
<defs>
<clipPath id="clip0_203_176">
<rect width="30" height="30" fill="white"/>
</clipPath>
</defs>
</svg>
