<svg width="28" height="28" viewBox="0 0 28 28" fill="none" xmlns="http://www.w3.org/2000/svg">
<path d="M14.8413 17.3879L9.7666 18.3013L10.6124 13.159L20.305 3.50024C20.4622 3.34169 20.6493 3.21585 20.8554 3.12997C21.0616 3.04409 21.2827 2.99988 21.506 2.99988C21.7293 2.99988 21.9504 3.04409 22.1565 3.12997C22.3626 3.21585 22.5497 3.34169 22.707 3.50024L24.5 5.29328C24.6586 5.45053 24.7844 5.63762 24.8703 5.84375C24.9562 6.04989 25.0004 6.27098 25.0004 6.49429C25.0004 6.71759 24.9562 6.93869 24.8703 7.14482C24.7844 7.35095 24.6586 7.53804 24.5 7.69529L14.8413 17.3879Z" stroke="black" stroke-width="2" stroke-linecap="round" stroke-linejoin="round"/>
<path d="M22.4529 18.2338V23.3084C22.4529 23.7571 22.2746 24.1873 21.9574 24.5045C21.6402 24.8218 21.2099 25 20.7613 25H4.69155C4.24293 25 3.81267 24.8218 3.49544 24.5045C3.17822 24.1873 3 23.7571 3 23.3084V7.23867C3 6.79004 3.17822 6.35979 3.49544 6.04256C3.81267 5.72534 4.24293 5.54712 4.69155 5.54712H9.76621" stroke="black" stroke-width="2" stroke-linecap="round" stroke-linejoin="round"/>
</svg>
