<svg width="58" height="58" viewBox="0 0 58 58" fill="none" xmlns="http://www.w3.org/2000/svg">
<g clip-path="url(#clip0_1_475)">
<path d="M47.125 9.0625H10.875C9.91359 9.0625 8.99156 9.44442 8.31174 10.1242C7.63192 10.8041 7.25 11.7261 7.25 12.6875V25.9867C7.25 46.2414 24.4234 52.9703 27.8672 54.1031C28.603 54.3452 29.397 54.3452 30.1328 54.1031C33.5766 52.9703 50.75 46.2414 50.75 25.9867V12.6875C50.75 11.7261 50.3681 10.8041 49.6883 10.1242C49.0084 9.44442 48.0864 9.0625 47.125 9.0625ZM29 50.6594C26.1227 49.7078 12.6195 44.4063 11.0336 29H29V12.6875H47.125V25.9867C47.1304 26.9934 47.0775 27.9995 46.9664 29H29V50.6594Z" fill="#666666"/>
</g>
<defs>
<clipPath id="clip0_1_475">
<rect width="58" height="58" fill="white"/>
</clipPath>
</defs>
</svg>
