<svg width="58" height="58" viewBox="0 0 58 58" fill="none" xmlns="http://www.w3.org/2000/svg">
<g clip-path="url(#clip0_209_422)">
<path d="M52.5406 48.0312C49.1586 42.2052 43.7452 37.8325 37.3382 35.7515C40.4092 33.9253 42.7957 31.1414 44.1311 27.8273C45.4665 24.5133 45.6768 20.8525 44.7299 17.4073C43.7829 13.9621 41.731 10.9231 38.8894 8.75717C36.0478 6.59123 32.5737 5.41815 29.0007 5.41815C25.4278 5.41815 21.9536 6.59123 19.112 8.75717C16.2704 10.9231 14.2185 13.9621 13.2716 17.4073C12.3246 20.8525 12.535 24.5133 13.8704 27.8273C15.2057 31.1414 17.5922 33.9253 20.6632 35.7515C14.2563 37.8325 8.84287 42.2052 5.46089 48.0312C5.29485 48.3043 5.20703 48.6178 5.20703 48.9374C5.20703 49.2571 5.29485 49.5706 5.46089 49.8437C5.61581 50.1214 5.84281 50.3522 6.11794 50.5117C6.39308 50.6712 6.70617 50.7535 7.02417 50.7499H50.9773C51.2953 50.7535 51.6084 50.6712 51.8835 50.5117C52.1587 50.3522 52.3857 50.1214 52.5406 49.8437C52.7066 49.5706 52.7944 49.2571 52.7944 48.9374C52.7944 48.6178 52.7066 48.3043 52.5406 48.0312V48.0312Z" fill="#666666"/>
</g>
<defs>
<clipPath id="clip0_209_422">
<rect width="58" height="58" fill="white"/>
</clipPath>
</defs>
</svg>
