<svg width="38" height="38" viewBox="0 0 38 38" fill="none" xmlns="http://www.w3.org/2000/svg">
<path fill-rule="evenodd" clip-rule="evenodd" d="M9.62192 14.25C9.62192 9.44064 13.8209 5.54168 19 5.54168C24.1791 5.54168 28.3781 9.44064 28.3781 14.25C28.3781 17.2639 26.7298 19.9207 24.2218 21.4851C22.093 22.8119 19.8518 24.9011 19.8518 27.6379V27.7083C19.8518 30.3319 17.5623 32.4583 14.7377 32.4583C11.9114 32.4583 9.62192 30.3319 9.62192 27.7083V26.125H7.91667V27.7083C7.91667 31.2059 10.9701 34.0417 14.7369 34.0417C18.5036 34.0417 21.5579 31.2059 21.5579 27.7083V27.6379C21.5579 25.7347 23.1515 24.0596 25.1718 22.7992C28.1327 20.9531 30.0833 17.8133 30.0833 14.25C30.0833 8.56584 25.1212 3.95834 19 3.95834C12.8788 3.95834 7.91667 8.56584 7.91667 14.25H9.62192ZM18.2083 11.0833C16.6662 11.0833 15.4153 12.1244 15.1121 13.4742H15.1343C15.7779 13.5074 16.6527 13.5993 17.5394 13.8415C18.4189 14.0822 19.3697 14.4875 20.1099 15.185C20.8731 15.9046 21.375 16.9021 21.375 18.2147C21.375 18.2384 21.3742 18.2622 21.3718 18.2859C21.2563 19.5605 20.9443 20.5343 20.4717 21.2642C19.992 22.006 19.3745 22.4541 18.7285 22.7082C18.0967 22.9568 17.4634 23.0106 16.948 23.0106C16.6891 23.0106 16.45 22.9963 16.2529 22.9845L16.1745 22.9789C16.0954 22.9734 16.0163 22.9687 15.937 22.9647C15.9257 22.9847 15.9149 23.0051 15.9046 23.0256C15.8207 23.1989 15.7475 23.3771 15.6853 23.5592C15.6346 23.697 15.5768 23.8553 15.5008 24.0453C15.3346 24.4609 15.0963 24.9779 14.6957 25.3911C14.265 25.8337 13.6792 26.125 12.9129 26.125C12.2495 26.125 11.7 25.973 11.2694 25.6777C10.8922 25.419 10.6066 25.0477 10.4532 24.6169C10.3444 24.311 10.2897 23.9884 10.2917 23.6637C10.2916 23.5191 10.3022 23.3746 10.3233 23.2315L10.3257 23.2204L10.3265 23.2164V23.2141C10.3265 23.2133 10.3265 23.2125 11.1055 23.355L11.8845 23.4967V23.4943L11.8853 23.4919L11.8821 23.522C11.8637 23.7074 11.8834 23.8947 11.9399 24.0722C11.9799 24.1929 12.0579 24.2974 12.1624 24.3699C12.2732 24.4459 12.4925 24.5409 12.9129 24.5409C13.2311 24.5409 13.4132 24.4372 13.5597 24.2868C13.7346 24.1063 13.8803 23.8323 14.0307 23.4563C14.0671 23.3653 14.1075 23.256 14.151 23.1388C14.254 22.8618 14.3743 22.5372 14.4962 22.3013C14.5255 22.2437 14.5572 22.1875 14.5912 22.1326C15.0314 21.0061 15.713 19.0333 15.4375 18.2076C15.253 17.655 14.8976 17.1024 14.5698 16.6693C14.1708 16.3353 13.8668 16.0123 13.6832 15.6259C13.4568 15.1478 13.4575 14.6482 13.4583 14.1891V14.1075C13.4583 11.5362 15.6125 9.50001 18.2083 9.50001C20.8042 9.50001 22.9583 11.5362 22.9583 14.1075H21.375C21.375 12.4648 19.9848 11.0833 18.2083 11.0833ZM15.9853 22.895L15.9782 22.9029C15.9804 22.8999 15.9831 22.8972 15.9861 22.895" fill="#EFE693"/>
</svg>
