<svg width="38" height="38" viewBox="0 0 38 38" fill="none" xmlns="http://www.w3.org/2000/svg">
<path d="M20.1875 19C20.8433 19 21.375 18.4683 21.375 17.8125C21.375 17.1567 20.8433 16.625 20.1875 16.625C19.5317 16.625 19 17.1567 19 17.8125C19 18.4683 19.5317 19 20.1875 19Z" stroke="#84B5FF" stroke-width="2.375" stroke-linecap="round" stroke-linejoin="round"/>
<path d="M19 26.125C22.935 26.125 26.125 22.935 26.125 19C26.125 15.065 22.935 11.875 19 11.875C15.065 11.875 11.875 15.065 11.875 19C11.875 22.935 15.065 26.125 19 26.125Z" stroke="#84B5FF" stroke-width="2.375" stroke-linecap="round" stroke-linejoin="round"/>
<path d="M2.375 19C2.375 19 8.3125 7.125 19 7.125C29.6875 7.125 35.625 19 35.625 19C35.625 19 29.6875 30.875 19 30.875C8.3125 30.875 2.375 19 2.375 19Z" stroke="#84B5FF" stroke-width="2.375" stroke-linecap="round" stroke-linejoin="round"/>
</svg>
