<svg width="39" height="38" viewBox="0 0 39 38" fill="none" xmlns="http://www.w3.org/2000/svg">
<path d="M24.25 9.5H21.875C21.875 7.92528 21.2494 6.41505 20.1359 5.30155C19.0224 4.18806 17.5122 3.5625 15.9375 3.5625C14.3628 3.5625 12.8526 4.18806 11.7391 5.30155C10.6256 6.41505 10 7.92528 10 9.5H7.625C7.625 7.29539 8.50078 5.18107 10.0597 3.62217C11.6186 2.06328 13.7329 1.1875 15.9375 1.1875C18.1421 1.1875 20.2564 2.06328 21.8153 3.62217C23.3742 5.18107 24.25 7.29539 24.25 9.5Z" fill="#3C9EFA"/>
<path d="M30.1875 17.8125C29.574 17.8147 28.9719 17.9785 28.4419 18.2875C28.1217 17.7797 27.6784 17.361 27.1532 17.0704C26.628 16.7798 26.0378 16.6265 25.4375 16.625C24.824 16.6272 24.2219 16.791 23.6919 17.1C23.2598 16.4202 22.6102 15.9069 21.8489 15.6437C21.0876 15.3806 20.2596 15.3833 19.5 15.6513V9.5C19.5 8.55517 19.1247 7.64903 18.4566 6.98093C17.7885 6.31283 16.8823 5.9375 15.9375 5.9375C14.9927 5.9375 14.0865 6.31283 13.4184 6.98093C12.7503 7.64903 12.375 8.55517 12.375 9.5V22.6812L9.72688 20.8763C9.11982 20.4242 8.3819 20.1823 7.62501 20.1875C6.91842 20.1858 6.22727 20.3942 5.63944 20.7862C5.05161 21.1783 4.59364 21.7363 4.32378 22.3894C4.05391 23.0424 3.98433 23.7609 4.12389 24.4536C4.26344 25.1463 4.60582 25.7818 5.10751 26.2794L14.6075 34.9481C15.9525 36.1519 17.695 36.8159 19.5 36.8125H25.4375C27.6421 36.8125 29.7564 35.9367 31.3153 34.3778C32.8742 32.8189 33.75 30.7046 33.75 28.5V21.375C33.75 20.4302 33.3747 19.524 32.7066 18.8559C32.0385 18.1878 31.1323 17.8125 30.1875 17.8125ZM31.375 28.5C31.375 30.0747 30.7494 31.5849 29.636 32.6984C28.5225 33.8119 27.0122 34.4375 25.4375 34.4375H19.5C18.2997 34.452 17.135 34.03 16.2225 33.25L6.78188 24.5813C6.5625 24.3601 6.43882 24.0615 6.43751 23.75C6.43751 23.5295 6.49892 23.3133 6.61486 23.1257C6.7308 22.9381 6.89669 22.7865 7.09394 22.6879C7.29119 22.5892 7.51201 22.5475 7.73165 22.5673C7.95129 22.5871 8.16108 22.6677 8.3375 22.8L14.75 27.1938V9.5C14.75 9.18506 14.8751 8.88301 15.0978 8.66031C15.3205 8.43761 15.6226 8.3125 15.9375 8.3125C16.2524 8.3125 16.5545 8.43761 16.7772 8.66031C16.9999 8.88301 17.125 9.18506 17.125 9.5V22.5625H19.5V19C19.5 18.6851 19.6251 18.383 19.8478 18.1603C20.0705 17.9376 20.3726 17.8125 20.6875 17.8125C21.0024 17.8125 21.3045 17.9376 21.5272 18.1603C21.7499 18.383 21.875 18.6851 21.875 19V22.5625H24.25V20.1875C24.25 19.8726 24.3751 19.5705 24.5978 19.3478C24.8205 19.1251 25.1226 19 25.4375 19C25.7525 19 26.0545 19.1251 26.2772 19.3478C26.4999 19.5705 26.625 19.8726 26.625 20.1875V22.5625H29V21.375C29 21.0601 29.1251 20.758 29.3478 20.5353C29.5705 20.3126 29.8726 20.1875 30.1875 20.1875C30.5025 20.1875 30.8045 20.3126 31.0272 20.5353C31.2499 20.758 31.375 21.0601 31.375 21.375V28.5Z" fill="#3C9EFA"/>
</svg>
