<svg width="39" height="38" viewBox="0 0 39 38" fill="none" xmlns="http://www.w3.org/2000/svg">
<path d="M24.9744 5.06903C25.0186 4.97355 25.0434 4.8702 25.0472 4.76503C25.0511 4.65986 25.0339 4.55499 24.9968 4.45653C24.9596 4.35807 24.9032 4.26802 24.8308 4.19162C24.7584 4.11523 24.6715 4.05404 24.5752 4.01162C24.4789 3.9692 24.3751 3.94641 24.2699 3.94458C24.1647 3.94275 24.0601 3.96191 23.9624 4.00096C23.8647 4.04 23.7757 4.09814 23.7007 4.17197C23.6257 4.2458 23.5662 4.33384 23.5256 4.43094L23.5225 4.43728L23.5122 4.46103C23.4436 4.61536 23.3734 4.76895 23.3016 4.92178C22.3928 6.86859 21.3996 8.77488 20.3249 10.6352C18.3616 14.0228 15.78 17.7737 13.1738 19.6523C9.73479 22.1207 8.70088 25.156 9.42525 27.6972C10.1346 30.187 12.485 31.9619 15.2598 31.9619H17.8161C18.3677 31.9619 18.8967 32.1811 19.2867 32.5711C19.6767 32.9611 19.8958 33.4901 19.8958 34.0417H21.4792C21.4792 33.0702 21.0932 32.1384 20.4063 31.4515C19.7193 30.7645 18.7876 30.3786 17.8161 30.3786H17.3601C17.5375 30.1126 17.8209 29.8522 18.2515 29.6519C19.0385 29.2845 20.3732 29.0977 22.487 29.5885C22.5884 29.6126 22.6936 29.6164 22.7966 29.5997C22.8995 29.5831 22.9981 29.5462 23.0868 29.4913C23.1754 29.4364 23.2523 29.3645 23.3131 29.2798C23.3739 29.1951 23.4173 29.0992 23.441 28.9976C23.4646 28.896 23.4679 28.7908 23.4507 28.688C23.4336 28.5851 23.3963 28.4867 23.3409 28.3983C23.2856 28.3099 23.2134 28.2333 23.1284 28.1729C23.0434 28.1125 22.9473 28.0695 22.8456 28.0464C20.5268 27.508 18.8002 27.6482 17.5818 28.2166C16.5075 28.7177 15.8758 29.5339 15.6335 30.3778H15.2598C13.1643 30.3778 11.4559 29.0454 10.9484 27.2626C10.4544 25.5312 11.0442 23.1293 14.0977 20.938L14.0993 20.9372C17.0047 18.8432 19.7288 14.8216 21.6953 11.4293C22.7941 9.52717 23.8094 7.57809 24.7385 5.58757C24.8128 5.42756 24.8861 5.26711 24.9585 5.10624L24.9704 5.07932L24.9744 5.07061V5.06903ZM28.8068 27.7012C28.3952 29.3558 27.3684 30.8512 26.2521 31.5471L25.4138 30.2021C26.112 29.7667 26.9361 28.6607 27.2694 27.3188C27.5932 26.0149 27.4238 24.6208 26.3511 23.5069L27.4911 22.4081C29.0325 24.0089 29.2264 26.0078 28.8053 27.7004" fill="#EA5F5F"/>
</svg>
