<svg width="38" height="38" viewBox="0 0 38 38" fill="none" xmlns="http://www.w3.org/2000/svg">
<path d="M38 0C38 0 28.9547 2.66991 19 2.66991C9.0459 2.66991 0 0 0 0C0 3.77274 1.46237 7.3117 3.91147 10.17C3.80127 11.7032 3.80063 13.7676 3.80063 16.5308C3.80063 30.8238 10.6058 38 19 38C27.3955 38 34.2006 30.8238 34.2006 16.53C34.2006 13.7659 34.2006 11.7007 34.0911 10.1675C36.5389 7.31004 38 3.77191 38 0ZM19 35.9728C12.3924 35.9728 5.33267 30.8651 5.33267 16.53C5.33267 12.6532 5.33267 9.85191 5.68037 8.67804C5.78043 8.3377 5.87607 8.01717 7.41697 8.01717C8.21497 8.01717 9.2264 8.10639 10.507 8.22039C12.3994 8.38809 14.9429 8.6103 18.1564 8.645L19 31.1294L19.8436 8.645C23.0584 8.6103 25.6038 8.38809 27.4962 8.22039C28.7768 8.10722 29.7888 8.01717 30.5868 8.01717C32.1277 8.01717 32.2215 8.33687 32.3222 8.67639C32.668 9.84696 32.668 12.502 32.668 16.53C32.668 30.8651 25.6082 35.9728 19 35.9728Z" fill="#FF9BB4"/>
</svg>
